<svg width="329" height="315" viewBox="0 0 329 315" fill="none" xmlns="http://www.w3.org/2000/svg">
<g filter="url(#filter0_dd)">
<path d="M121.85 294.988C103.507 288.529 89.1141 266.284 79.0214 248.419C69.0948 230.459 63.801 216.688 55.8245 204.023C47.9438 191.524 37.2847 179.964 36.9232 168.217C36.5617 156.469 46.2359 144.462 52.0632 128.477C58.0565 112.396 60.369 92.2409 70.6579 84.7506C81.1129 77.1645 99.5445 82.2436 113.895 89.4576C128.175 96.9336 138.041 106.736 164.743 105.048C191.349 103.193 234.529 89.7767 254.808 98.4389C275.349 107.171 273.155 137.886 259.843 160.85C246.793 183.883 222.554 199.427 208.155 218.59C193.756 237.753 189.196 260.534 175.639 276.554C162.248 292.478 140.288 301.613 121.85 294.988Z" fill="url(#paint0_linear)"/>
</g>
<defs>
<filter id="filter0_dd" x="0" y="-2.28882e-05" width="328.041" height="324.521" filterUnits="userSpaceOnUse" color-interpolation-filters="sRGB">
<feFlood flood-opacity="0" result="BackgroundImageFix"/>
<feColorMatrix in="SourceAlpha" type="matrix" values="0 0 0 0 0 0 0 0 0 0 0 0 0 0 0 0 0 0 127 0"/>
<feOffset dx="-2" dy="2"/>
<feGaussianBlur stdDeviation="2"/>
<feColorMatrix type="matrix" values="0 0 0 0 0 0 0 0 0 0 0 0 0 0 0 0 0 0 0.1 0"/>
<feBlend mode="normal" in2="BackgroundImageFix" result="effect1_dropShadow"/>
<feColorMatrix in="SourceAlpha" type="matrix" values="0 0 0 0 0 0 0 0 0 0 0 0 0 0 0 0 0 0 127 0"/>
<feOffset dx="2" dy="2"/>
<feGaussianBlur stdDeviation="4"/>
<feColorMatrix type="matrix" values="0 0 0 0 0.5125 0 0 0 0 0.207628 0 0 0 0 0.0790104 0 0 0 0.15 0"/>
<feBlend mode="normal" in2="effect1_dropShadow" result="effect2_dropShadow"/>
<feBlend mode="normal" in="SourceGraphic" in2="effect2_dropShadow" result="shape"/>
</filter>
<linearGradient id="paint0_linear" x1="217.604" y1="256.534" x2="106.437" y2="63.9875" gradientUnits="userSpaceOnUse">
<stop stop-color="#FFCB35"/>
<stop offset="1" stop-color="#FF0066"/>
</linearGradient>
</defs>
</svg>
