<svg width="661" height="308" viewBox="0 0 661 308" fill="none" xmlns="http://www.w3.org/2000/svg">
<g clip-path="url(#clip0)">
<path d="M523.821 83.1936C522.015 84.1982 520.996 86.0723 520.996 88.0065C520.996 88.9095 521.216 89.8272 521.688 90.6728C523.163 93.3257 526.503 94.2848 529.151 92.8074L627.974 37.8084C630.623 36.339 631.588 32.9902 630.108 30.3293C628.633 27.6764 625.293 26.7172 622.645 28.1946L523.821 83.1936Z" fill="url(#paint0_linear)"/>
<path d="M470.334 121.145C467.803 121.736 466.092 123.997 466.092 126.495C466.092 126.909 466.14 127.33 466.238 127.75C466.925 130.71 469.878 132.546 472.833 131.856L637.539 93.3553C640.488 92.6647 642.322 89.6979 641.636 86.7511C640.949 83.791 637.995 81.9542 635.04 82.6448L470.334 121.145Z" fill="url(#paint1_linear)"/>
<path d="M540.211 134.745C540.211 134.86 540.216 134.976 540.222 135.094C540.41 138.126 543.015 140.43 546.043 140.239L633.887 134.74C636.917 134.549 639.109 131.979 639.023 128.908C638.835 125.875 636.23 123.571 633.2 123.762L545.357 129.262C542.447 129.443 540.211 131.862 540.211 134.745Z" fill="url(#paint2_linear)"/>
<path d="M477.111 147.857C477.084 148.075 477.073 148.293 477.073 148.508C477.073 151.258 479.127 153.632 481.92 153.962L575.254 164.962C578.267 165.317 580.996 163.16 581.35 160.141C581.73 157.141 579.554 154.395 576.541 154.037L483.207 143.036C480.194 142.682 477.465 144.84 477.111 147.857Z" fill="url(#paint3_linear)"/>
<path d="M529.435 198.858L469.043 160.359C466.486 158.729 463.092 159.484 461.461 162.045C460.883 162.961 460.604 163.983 460.604 164.993C460.604 166.811 461.505 168.589 463.146 169.639L523.537 208.138C526.095 209.768 529.489 209.013 531.119 206.452C532.737 203.89 531.986 200.491 529.435 198.858Z" fill="url(#paint4_linear)"/>
<path d="M616.124 264.341C617.828 261.827 617.175 258.408 614.671 256.698L546.043 209.949C543.535 208.241 540.12 208.894 538.415 211.404C537.771 212.353 537.465 213.429 537.465 214.492C537.465 216.252 538.307 217.982 539.867 219.048L608.494 265.797C611.004 267.504 614.419 266.852 616.124 264.341Z" fill="url(#paint5_linear)"/>
<path d="M521.397 173.936C521.124 174.612 520.996 175.311 520.996 175.996C520.996 178.171 522.293 180.231 524.427 181.099L653.447 233.347C656.262 234.485 659.457 233.124 660.595 230.31C661.743 227.487 660.369 224.289 657.565 223.147L528.545 170.899C525.73 169.76 522.533 171.122 521.397 173.936Z" fill="url(#paint6_linear)"/>
<path d="M538.281 257.06L464.163 193.811C461.857 191.842 458.388 192.12 456.421 194.431C455.541 195.465 455.113 196.733 455.113 197.995C455.113 199.55 455.766 201.097 457.044 202.184L531.162 265.433C533.468 267.402 536.937 267.124 538.904 264.813C540.871 262.506 540.592 259.032 538.281 257.06Z" fill="url(#paint7_linear)"/>
<path d="M475.975 255.197L443.033 211.198C441.216 208.769 437.774 208.277 435.35 210.1C433.907 211.18 433.151 212.832 433.151 214.504C433.151 215.651 433.51 216.809 434.25 217.8L467.191 261.799C469.009 264.228 472.45 264.72 474.875 262.897C477.304 261.079 477.792 257.636 475.975 255.197Z" fill="url(#paint8_linear)"/>
<path d="M505.152 304.09C507.543 302.221 507.983 298.76 506.112 296.372L486.896 271.622C485.035 269.224 481.587 268.791 479.191 270.655C477.803 271.74 477.073 273.363 477.073 275C477.073 276.181 477.449 277.371 478.231 278.373L497.447 303.123C499.309 305.521 502.756 305.953 505.152 304.09Z" fill="url(#paint9_linear)"/>
<path d="M519.944 57.2659C518.164 54.8107 514.727 54.2657 512.276 56.0543L451.885 100.053C450.404 101.13 449.622 102.806 449.622 104.505C449.622 105.625 449.964 106.759 450.672 107.737C452.453 110.192 455.889 110.737 458.34 108.948L518.732 64.9494C521.188 63.1595 521.729 59.7224 519.944 57.2659Z" fill="url(#paint10_linear)"/>
<path d="M528.378 39.8441C527.128 40.9315 526.486 42.4623 526.486 44.0038C526.486 45.2795 526.926 46.5632 527.826 47.6025C529.815 49.8987 533.278 50.1458 535.573 48.1582L576.75 12.4094C579.029 10.4218 579.292 6.94733 577.302 4.65109C575.313 2.35484 571.85 2.10772 569.555 4.09539L528.378 39.8441Z" fill="url(#paint11_linear)"/>
<path d="M448.159 86.2367L516.786 11.9875C518.85 9.758 518.717 6.2809 516.491 4.21575C514.266 2.15327 510.792 2.28685 508.733 4.51631L440.106 78.7656C439.125 79.8235 438.642 81.1633 438.642 82.5005C438.642 83.9779 439.231 85.4512 440.401 86.5373C442.625 88.5997 446.1 88.4648 448.159 86.2367Z" fill="url(#paint12_linear)"/>
<path d="M432.787 67.975L446.512 32.2262C447.59 29.3957 446.191 26.2138 443.36 25.1171C440.529 24.0271 437.35 25.4417 436.261 28.2776L422.535 64.0263C422.289 64.6769 422.171 65.3421 422.171 66.0007C422.171 68.2087 423.506 70.2926 425.689 71.1355C428.52 72.2268 431.699 70.8109 432.787 67.975Z" fill="url(#paint13_linear)"/>
</g>
<g clip-path="url(#clip1)">
<path d="M137.752 83.1936C139.567 84.1982 140.59 86.0723 140.59 88.0065C140.59 88.9095 140.369 89.8272 139.895 90.6728C138.414 93.3257 135.06 94.2848 132.4 92.8074L33.1637 37.8084C30.5044 36.339 29.5349 32.9902 31.0212 30.3293C32.5022 27.6764 35.8565 26.7172 38.5158 28.1946L137.752 83.1936Z" fill="url(#paint14_linear)"/>
<path d="M191.464 121.145C194.005 121.736 195.723 123.997 195.723 126.495C195.723 126.909 195.675 127.33 195.577 127.749C194.887 130.709 191.922 132.546 188.954 131.856L23.5588 93.3551C20.5982 92.6645 18.7557 89.6976 19.4453 86.7509C20.1349 83.7907 23.1009 81.954 26.0682 82.6446L191.464 121.145Z" fill="url(#paint15_linear)"/>
<path d="M121.294 134.745C121.294 134.86 121.289 134.976 121.284 135.094C121.095 138.126 118.479 140.43 115.438 140.239L27.2264 134.74C24.1842 134.549 21.9828 131.979 22.0685 128.908C22.2573 125.875 24.8738 123.571 27.916 123.762L116.127 129.262C119.049 129.443 121.294 131.862 121.294 134.745Z" fill="url(#paint16_linear)"/>
<path d="M184.659 147.857C184.685 148.075 184.696 148.293 184.696 148.508C184.696 151.258 182.634 153.632 179.829 153.962L86.1048 164.962C83.0786 165.317 80.339 163.16 79.9828 160.141C79.6012 157.141 81.7865 154.395 84.8127 154.037L178.537 143.036C181.563 142.682 184.302 144.84 184.659 147.857Z" fill="url(#paint17_linear)"/>
<path d="M132.115 198.858L192.76 160.359C195.328 158.729 198.736 159.484 200.373 162.045C200.955 162.961 201.234 163.983 201.234 164.993C201.234 166.811 200.329 168.589 198.682 169.639L138.038 208.138C135.469 209.768 132.062 209.013 130.424 206.452C128.8 203.89 129.554 200.491 132.115 198.858Z" fill="url(#paint18_linear)"/>
<path d="M45.0636 264.341C43.3523 261.827 44.0085 258.408 46.5232 256.699L115.438 209.949C117.956 208.241 121.386 208.894 123.098 211.404C123.745 212.353 124.052 213.429 124.052 214.493C124.052 216.252 123.207 217.982 121.64 219.048L52.7255 265.797C50.2055 267.504 46.7762 266.852 45.0636 264.341Z" fill="url(#paint19_linear)"/>
<path d="M140.187 173.936C140.461 174.612 140.59 175.311 140.59 175.996C140.59 178.17 139.287 180.23 137.145 181.099L7.58423 233.347C4.75754 234.485 1.54923 233.124 0.407041 230.31C-0.745862 227.487 0.633338 224.289 3.44931 223.147L133.01 170.898C135.836 169.76 139.046 171.121 140.187 173.936Z" fill="url(#paint20_linear)"/>
<path d="M123.232 257.061L197.661 193.812C199.976 191.843 203.46 192.121 205.435 194.432C206.319 195.465 206.749 196.733 206.749 197.995C206.749 199.55 206.092 201.097 204.81 202.185L130.381 265.433C128.066 267.402 124.582 267.125 122.607 264.814C120.632 262.507 120.912 259.032 123.232 257.061Z" fill="url(#paint21_linear)"/>
<path d="M185.799 255.197L218.879 211.198C220.704 208.769 224.16 208.277 226.594 210.1C228.043 211.18 228.802 212.832 228.802 214.504C228.802 215.651 228.442 216.809 227.699 217.8L194.62 261.799C192.795 264.228 189.339 264.72 186.904 262.897C184.464 261.079 183.974 257.636 185.799 255.197Z" fill="url(#paint22_linear)"/>
<path d="M156.5 304.09C154.099 302.221 153.657 298.76 155.536 296.372L174.833 271.622C176.701 269.224 180.164 268.791 182.57 270.655C183.964 271.74 184.696 273.363 184.696 275C184.696 276.181 184.319 277.371 183.534 278.373L164.237 303.123C162.368 305.521 158.906 305.954 156.5 304.09Z" fill="url(#paint23_linear)"/>
<path d="M141.646 57.2659C143.434 54.8107 146.885 54.2657 149.346 56.0543L209.99 100.053C211.477 101.13 212.263 102.806 212.263 104.505C212.263 105.625 211.919 106.759 211.208 107.737C209.42 110.192 205.969 110.737 203.508 108.948L142.864 64.9494C140.397 63.1595 139.853 59.7224 141.646 57.2659Z" fill="url(#paint24_linear)"/>
<path d="M133.177 39.8444C134.432 40.9317 135.077 42.4626 135.077 44.0041C135.077 45.2798 134.635 46.5635 133.731 47.6027C131.734 49.899 128.256 50.1461 125.952 48.1584L84.6025 12.4097C82.3141 10.422 82.0503 6.94758 84.0481 4.65133C86.0459 2.35509 89.5234 2.10796 91.8279 4.09564L133.177 39.8444Z" fill="url(#paint25_linear)"/>
<path d="M213.732 86.2367L144.817 11.9875C142.744 9.758 142.878 6.2809 145.113 4.21575C147.348 2.15328 150.836 2.28686 152.904 4.51631L221.818 78.7656C222.804 79.8235 223.288 81.1633 223.288 82.5005C223.288 83.9779 222.696 85.4512 221.522 86.5373C219.289 88.5997 215.799 88.4648 213.732 86.2367Z" fill="url(#paint26_linear)"/>
<path d="M229.168 67.975L215.385 32.2262C214.303 29.3957 215.708 26.2138 218.551 25.1171C221.394 24.0271 224.586 25.4417 225.68 28.2776L239.462 64.0263C239.71 64.6769 239.828 65.3421 239.828 66.0007C239.828 68.2087 238.488 70.2926 236.296 71.1355C233.453 72.2268 230.261 70.8109 229.168 67.975Z" fill="url(#paint27_linear)"/>
</g>
<defs>
<linearGradient id="paint0_linear" x1="630.803" y1="60.501" x2="520.996" y2="60.501" gradientUnits="userSpaceOnUse">
<stop stop-color="#FFCB35"/>
<stop offset="1" stop-color="#FF0066"/>
</linearGradient>
<linearGradient id="paint1_linear" x1="641.78" y1="107.25" x2="466.092" y2="107.25" gradientUnits="userSpaceOnUse">
<stop stop-color="#FFCB35"/>
<stop offset="1" stop-color="#FF0066"/>
</linearGradient>
<linearGradient id="paint2_linear" x1="639.026" y1="132.001" x2="540.211" y2="132.001" gradientUnits="userSpaceOnUse">
<stop stop-color="#FFCB35"/>
<stop offset="1" stop-color="#FF0066"/>
</linearGradient>
<linearGradient id="paint3_linear" x1="581.394" y1="153.999" x2="477.073" y2="153.999" gradientUnits="userSpaceOnUse">
<stop stop-color="#FFCB35"/>
<stop offset="1" stop-color="#FF0066"/>
</linearGradient>
<linearGradient id="paint4_linear" x1="531.972" y1="184.249" x2="460.604" y2="184.249" gradientUnits="userSpaceOnUse">
<stop stop-color="#FFCB35"/>
<stop offset="1" stop-color="#FF0066"/>
</linearGradient>
<linearGradient id="paint5_linear" x1="617.073" y1="237.873" x2="537.465" y2="237.873" gradientUnits="userSpaceOnUse">
<stop stop-color="#FFCB35"/>
<stop offset="1" stop-color="#FF0066"/>
</linearGradient>
<linearGradient id="paint6_linear" x1="661.001" y1="202.123" x2="520.996" y2="202.123" gradientUnits="userSpaceOnUse">
<stop stop-color="#FFCB35"/>
<stop offset="1" stop-color="#FF0066"/>
</linearGradient>
<linearGradient id="paint7_linear" x1="540.215" y1="229.622" x2="455.113" y2="229.622" gradientUnits="userSpaceOnUse">
<stop stop-color="#FFCB35"/>
<stop offset="1" stop-color="#FF0066"/>
</linearGradient>
<linearGradient id="paint8_linear" x1="477.073" y1="236.498" x2="433.151" y2="236.498" gradientUnits="userSpaceOnUse">
<stop stop-color="#FFCB35"/>
<stop offset="1" stop-color="#FF0066"/>
</linearGradient>
<linearGradient id="paint9_linear" x1="507.273" y1="287.372" x2="477.073" y2="287.372" gradientUnits="userSpaceOnUse">
<stop stop-color="#FFCB35"/>
<stop offset="1" stop-color="#FF0066"/>
</linearGradient>
<linearGradient id="paint10_linear" x1="520.996" y1="82.5012" x2="449.622" y2="82.5012" gradientUnits="userSpaceOnUse">
<stop stop-color="#FFCB35"/>
<stop offset="1" stop-color="#FF0066"/>
</linearGradient>
<linearGradient id="paint11_linear" x1="578.641" y1="26.1268" x2="526.486" y2="26.1268" gradientUnits="userSpaceOnUse">
<stop stop-color="#FFCB35"/>
<stop offset="1" stop-color="#FF0066"/>
</linearGradient>
<linearGradient id="paint12_linear" x1="518.251" y1="45.3763" x2="438.642" y2="45.3763" gradientUnits="userSpaceOnUse">
<stop stop-color="#FFCB35"/>
<stop offset="1" stop-color="#FF0066"/>
</linearGradient>
<linearGradient id="paint13_linear" x1="446.875" y1="48.1266" x2="422.171" y2="48.1266" gradientUnits="userSpaceOnUse">
<stop stop-color="#FFCB35"/>
<stop offset="1" stop-color="#FF0066"/>
</linearGradient>
<linearGradient id="paint14_linear" x1="30.3237" y1="60.501" x2="140.59" y2="60.501" gradientUnits="userSpaceOnUse">
<stop stop-color="#FFCB35"/>
<stop offset="1" stop-color="#FF0066"/>
</linearGradient>
<linearGradient id="paint15_linear" x1="19.3007" y1="107.25" x2="195.723" y2="107.25" gradientUnits="userSpaceOnUse">
<stop stop-color="#FFCB35"/>
<stop offset="1" stop-color="#FF0066"/>
</linearGradient>
<linearGradient id="paint16_linear" x1="22.0661" y1="132.001" x2="121.294" y2="132.001" gradientUnits="userSpaceOnUse">
<stop stop-color="#FFCB35"/>
<stop offset="1" stop-color="#FF0066"/>
</linearGradient>
<linearGradient id="paint17_linear" x1="79.9395" y1="153.999" x2="184.696" y2="153.999" gradientUnits="userSpaceOnUse">
<stop stop-color="#FFCB35"/>
<stop offset="1" stop-color="#FF0066"/>
</linearGradient>
<linearGradient id="paint18_linear" x1="129.568" y1="184.249" x2="201.234" y2="184.249" gradientUnits="userSpaceOnUse">
<stop stop-color="#FFCB35"/>
<stop offset="1" stop-color="#FF0066"/>
</linearGradient>
<linearGradient id="paint19_linear" x1="44.1103" y1="237.873" x2="124.052" y2="237.873" gradientUnits="userSpaceOnUse">
<stop stop-color="#FFCB35"/>
<stop offset="1" stop-color="#FF0066"/>
</linearGradient>
<linearGradient id="paint20_linear" x1="-0.000642252" y1="202.123" x2="140.59" y2="202.123" gradientUnits="userSpaceOnUse">
<stop stop-color="#FFCB35"/>
<stop offset="1" stop-color="#FF0066"/>
</linearGradient>
<linearGradient id="paint21_linear" x1="121.291" y1="229.623" x2="206.749" y2="229.623" gradientUnits="userSpaceOnUse">
<stop stop-color="#FFCB35"/>
<stop offset="1" stop-color="#FF0066"/>
</linearGradient>
<linearGradient id="paint22_linear" x1="184.697" y1="236.498" x2="228.802" y2="236.498" gradientUnits="userSpaceOnUse">
<stop stop-color="#FFCB35"/>
<stop offset="1" stop-color="#FF0066"/>
</linearGradient>
<linearGradient id="paint23_linear" x1="154.37" y1="287.372" x2="184.696" y2="287.372" gradientUnits="userSpaceOnUse">
<stop stop-color="#FFCB35"/>
<stop offset="1" stop-color="#FF0066"/>
</linearGradient>
<linearGradient id="paint24_linear" x1="140.59" y1="82.5012" x2="212.263" y2="82.5012" gradientUnits="userSpaceOnUse">
<stop stop-color="#FFCB35"/>
<stop offset="1" stop-color="#FF0066"/>
</linearGradient>
<linearGradient id="paint25_linear" x1="82.7033" y1="26.127" x2="135.077" y2="26.127" gradientUnits="userSpaceOnUse">
<stop stop-color="#FFCB35"/>
<stop offset="1" stop-color="#FF0066"/>
</linearGradient>
<linearGradient id="paint26_linear" x1="143.346" y1="45.3763" x2="223.288" y2="45.3763" gradientUnits="userSpaceOnUse">
<stop stop-color="#FFCB35"/>
<stop offset="1" stop-color="#FF0066"/>
</linearGradient>
<linearGradient id="paint27_linear" x1="215.021" y1="48.1266" x2="239.828" y2="48.1266" gradientUnits="userSpaceOnUse">
<stop stop-color="#FFCB35"/>
<stop offset="1" stop-color="#FF0066"/>
</linearGradient>
<clipPath id="clip0">
<rect width="308" height="239" fill="white" transform="translate(661) rotate(90)"/>
</clipPath>
<clipPath id="clip1">
<rect width="308" height="240" fill="white" transform="matrix(-4.37114e-08 1 1 4.37114e-08 0 0)"/>
</clipPath>
</defs>
</svg>
