<svg width="120" height="120" viewBox="0 0 120 120" fill="none" xmlns="http://www.w3.org/2000/svg">
<g clip-path="url(#clip0)">
<path d="M113.492 5.85938H101.548C100.568 5.85938 99.7733 6.65405 99.7733 7.63458C99.7733 8.61511 100.568 9.40979 101.548 9.40979H113.492C115.123 9.40979 116.45 10.7373 116.45 12.3679V79.5868C116.45 81.2183 115.122 82.5458 113.492 82.5458H6.50848C4.87701 82.5458 3.55042 81.2183 3.55042 79.5868V12.3679C3.55042 10.7364 4.87793 9.40979 6.50848 9.40979H93.2693C94.2499 9.40979 95.0446 8.61511 95.0446 7.63458C95.0446 6.65405 94.2499 5.85938 93.2693 5.85938H6.50848C2.91962 5.85938 0 8.77899 0 12.3679V79.5868C0 83.1766 2.91962 86.0962 6.50848 86.0962H45.9174V91.5454C45.9174 96.0773 43.45 100.249 39.4794 102.434L37.3691 103.594C36.8024 103.906 36.4499 104.502 36.4499 105.149V112.25C36.4499 113.231 37.2446 114.025 38.2251 114.025H81.6623C82.6428 114.025 83.4375 113.231 83.4375 112.25V105.149C83.4375 104.502 83.085 103.906 82.5174 103.594L80.408 102.434C76.4365 100.249 73.97 96.0773 73.97 91.5454V86.0962H113.492C117.08 86.0962 120 83.1766 120 79.5868V12.3679C120 8.77899 117.08 5.85938 113.492 5.85938V5.85938ZM78.6969 105.544L79.8871 106.198V110.475H40.0003V106.198L41.1905 105.544C46.2955 102.736 49.4678 97.3718 49.4678 91.5454V86.0962H70.4196V91.5454C70.4196 97.3718 73.591 102.736 78.6969 105.544Z" fill="url(#paint0_linear)"/>
<path d="M9.82269 63.7436C8.84216 63.7436 8.04749 64.5383 8.04749 65.5188V76.2735C8.04749 77.254 8.84216 78.0487 9.82269 78.0487H110.177C111.158 78.0487 111.953 77.254 111.953 76.2735V15.6821C111.953 14.7015 111.158 13.9069 110.177 13.9069H9.82269C8.84216 13.9069 8.04749 14.7015 8.04749 15.6821V57.2598C8.04749 58.2404 8.84216 59.035 9.82269 59.035C10.8032 59.035 11.5979 58.2404 11.5979 57.2598V17.4573H108.402V74.4983H61.0648V67.2794C61.0648 59.5404 55.5341 53.0713 48.2181 51.6129C49.3094 49.8331 49.9402 47.7411 49.9402 45.5045V40.2969C49.9402 33.837 44.6851 28.5809 38.2251 28.5809C31.7642 28.5809 26.5091 33.837 26.5091 40.2969V45.5045C26.5091 47.7411 27.1399 49.8331 28.2312 51.6129C20.9152 53.0722 15.3845 59.5413 15.3845 67.2794V74.4983H11.5979V65.5188C11.5979 64.5383 10.8032 63.7436 9.82269 63.7436ZM30.0595 40.2969C30.0595 35.7944 33.7225 32.1313 38.2251 32.1313C42.7277 32.1313 46.3907 35.7944 46.3907 40.2969V45.5045C46.3907 50.007 42.7277 53.67 38.2251 53.67C33.7225 53.67 30.0595 50.007 30.0595 45.5045V40.2969ZM18.9349 67.2794C18.9349 60.4889 24.4116 54.9564 31.1792 54.8584C33.1412 56.3397 35.582 57.2205 38.2251 57.2205C40.8673 57.2205 43.3081 56.3397 45.2701 54.8584C52.0377 54.9564 57.5143 60.4889 57.5143 67.2794V74.4983H18.9349V67.2794Z" fill="url(#paint1_linear)"/>
<path d="M84.6158 23.6105H65.6808C64.7003 23.6105 63.9056 24.4052 63.9056 25.3857V44.3206C63.9056 45.3011 64.7003 46.0958 65.6808 46.0958H84.6158C85.5963 46.0958 86.391 45.3011 86.391 44.3206V25.3857C86.391 24.4052 85.5963 23.6105 84.6158 23.6105ZM82.8406 42.5454H67.4561V27.1609H82.8406V42.5454Z" fill="url(#paint2_linear)"/>
<path d="M64.1418 54.0253C64.1418 55.0049 64.9365 55.7996 65.9171 55.7996H102.131C103.11 55.7996 103.905 55.0049 103.905 54.0253C103.905 53.0448 103.11 52.2501 102.131 52.2501H65.9171C64.9365 52.2501 64.1418 53.0448 64.1418 54.0253Z" fill="url(#paint3_linear)"/>
<path d="M91.9528 46.0958H102.13C103.11 46.0958 103.905 45.3011 103.905 44.3206C103.905 43.3401 103.11 42.5454 102.13 42.5454H91.9528C90.9723 42.5454 90.1776 43.3401 90.1776 44.3206C90.1776 45.3011 90.9723 46.0958 91.9528 46.0958Z" fill="url(#paint4_linear)"/>
<path d="M91.9528 36.6284H102.13C103.11 36.6284 103.905 35.8337 103.905 34.8532C103.905 33.8727 103.11 33.078 102.13 33.078H91.9528C90.9723 33.078 90.1776 33.8727 90.1776 34.8532C90.1776 35.8337 90.9723 36.6284 91.9528 36.6284Z" fill="url(#paint5_linear)"/>
<path d="M91.9528 27.1609H102.13C103.11 27.1609 103.905 26.3662 103.905 25.3857C103.905 24.4052 103.11 23.6105 102.13 23.6105H91.9528C90.9723 23.6105 90.1776 24.4052 90.1776 25.3857C90.1776 26.3662 90.9723 27.1609 91.9528 27.1609Z" fill="url(#paint6_linear)"/>
<path d="M102.13 61.9537H65.9171C64.9365 61.9537 64.1418 62.7484 64.1418 63.7289C64.1418 64.7095 64.9365 65.5042 65.9171 65.5042H102.131C103.11 65.5042 103.905 64.7095 103.905 63.7289C103.905 62.7484 103.11 61.9537 102.13 61.9537Z" fill="url(#paint7_linear)"/>
</g>
<defs>
<linearGradient id="paint0_linear" x1="120.488" y1="5.58003" x2="7.52967" y2="120.737" gradientUnits="userSpaceOnUse">
<stop stop-color="#FFCB35"/>
<stop offset="0.0001" stop-color="#FFCB35"/>
<stop offset="0.557292" stop-color="#FF7949"/>
<stop offset="1" stop-color="#FF0066"/>
</linearGradient>
<linearGradient id="paint1_linear" x1="112.375" y1="13.7412" x2="50.3521" y2="106.068" gradientUnits="userSpaceOnUse">
<stop stop-color="#FFCB35"/>
<stop offset="0.0001" stop-color="#FFCB35"/>
<stop offset="0.557292" stop-color="#FF7949"/>
<stop offset="1" stop-color="#FF0066"/>
</linearGradient>
<linearGradient id="paint2_linear" x1="86.4824" y1="23.5524" x2="63.0802" y2="45.0574" gradientUnits="userSpaceOnUse">
<stop stop-color="#FFCB35"/>
<stop offset="0.0001" stop-color="#FFCB35"/>
<stop offset="0.557292" stop-color="#FF7949"/>
<stop offset="1" stop-color="#FF0066"/>
</linearGradient>
<linearGradient id="paint3_linear" x1="104.067" y1="52.241" x2="103.353" y2="59.5865" gradientUnits="userSpaceOnUse">
<stop stop-color="#FFCB35"/>
<stop offset="0.0001" stop-color="#FFCB35"/>
<stop offset="0.557292" stop-color="#FF7949"/>
<stop offset="1" stop-color="#FF0066"/>
</linearGradient>
<linearGradient id="paint4_linear" x1="103.961" y1="42.5362" x2="102.027" y2="49.4086" gradientUnits="userSpaceOnUse">
<stop stop-color="#FFCB35"/>
<stop offset="0.0001" stop-color="#FFCB35"/>
<stop offset="0.557292" stop-color="#FF7949"/>
<stop offset="1" stop-color="#FF0066"/>
</linearGradient>
<linearGradient id="paint5_linear" x1="103.961" y1="33.0688" x2="102.027" y2="39.9412" gradientUnits="userSpaceOnUse">
<stop stop-color="#FFCB35"/>
<stop offset="0.0001" stop-color="#FFCB35"/>
<stop offset="0.557292" stop-color="#FF7949"/>
<stop offset="1" stop-color="#FF0066"/>
</linearGradient>
<linearGradient id="paint6_linear" x1="103.961" y1="23.6013" x2="102.027" y2="30.4737" gradientUnits="userSpaceOnUse">
<stop stop-color="#FFCB35"/>
<stop offset="0.0001" stop-color="#FFCB35"/>
<stop offset="0.557292" stop-color="#FF7949"/>
<stop offset="1" stop-color="#FF0066"/>
</linearGradient>
<linearGradient id="paint7_linear" x1="104.067" y1="61.9446" x2="103.353" y2="69.292" gradientUnits="userSpaceOnUse">
<stop stop-color="#FFCB35"/>
<stop offset="0.0001" stop-color="#FFCB35"/>
<stop offset="0.557292" stop-color="#FF7949"/>
<stop offset="1" stop-color="#FF0066"/>
</linearGradient>
<clipPath id="clip0">
<rect width="120" height="120" fill="white"/>
</clipPath>
</defs>
</svg>
