<svg width="120" height="120" viewBox="0 0 120 120" fill="none" xmlns="http://www.w3.org/2000/svg">
<path d="M80.6386 30.4081C79.3446 30.4081 78.2958 31.4569 78.2958 32.7509V32.892C78.2958 34.186 79.3446 35.2348 80.6386 35.2348C81.9326 35.2348 82.9814 34.186 82.9814 32.892V32.7509C82.9814 31.4567 81.9326 30.4081 80.6386 30.4081Z" fill="url(#paint0_linear)"/>
<path d="M111.145 48.8712H103.471C102.343 43.4473 100.182 38.2298 97.1405 33.5878L102.567 28.1616C103.481 27.247 103.481 25.7634 102.567 24.8482L93.0757 15.3577C92.8669 15.1488 92.6224 14.9857 92.3574 14.8695V8.01305C92.3576 3.29484 89.8585 0 86.2798 0H74.9986C71.8397 0 69.5231 2.56898 69.0235 6.41766C68.8488 5.29617 67.8818 4.43695 66.7113 4.43695H53.2887C51.9947 4.43695 50.9459 5.48625 50.9459 6.77977V14.4469C45.5238 15.5752 40.3057 17.7382 35.6618 20.7825L30.2372 15.3581C29.3224 14.4436 27.8388 14.4436 26.9238 15.3581L17.4326 24.8484C16.9934 25.2881 16.7463 25.8839 16.7463 26.5052C16.7463 27.1266 16.9934 27.7223 17.4326 28.1616L22.8586 33.5873C19.8155 38.2313 17.6536 43.4489 16.5263 48.8712H8.85493C7.56095 48.8712 6.51212 49.9198 6.51212 51.214V64.6359C6.51212 65.9299 7.56095 66.9788 8.85493 66.9788H16.5298C17.6592 72.3977 19.8225 77.6123 22.8663 82.2539L17.4326 87.687C16.9934 88.1262 16.7463 88.7224 16.7463 89.3438C16.7463 89.9651 16.9934 90.5609 17.4326 91.0001L26.9236 100.491C27.8386 101.406 29.3217 101.406 30.2367 100.491L35.6733 95.0552C40.3144 98.0958 45.5285 100.256 50.9456 101.385V109.069C50.9456 110.363 51.9945 111.412 53.2885 111.412H66.7111C68.0049 111.412 69.0539 110.363 69.0539 109.069V101.385C69.3242 101.329 69.592 101.265 69.8611 101.204L78.5405 118.699C78.9359 119.496 79.7492 120 80.6391 120C81.529 120 82.3423 119.496 82.7377 118.699L91.4311 101.177C92.048 101.174 92.6393 100.927 93.076 100.491L102.567 91.0003C103.481 90.0858 103.481 88.6022 102.567 87.6872L97.1335 82.2541C100.175 77.6147 102.338 72.4001 103.467 66.979H111.145C112.439 66.979 113.488 65.9302 113.488 64.6362V51.2142C113.488 49.9198 112.439 48.8712 111.145 48.8712ZM68.9217 31.2659C66.0638 30.3063 63.0764 29.8191 60.0003 29.8191C44.5076 29.8191 31.9036 42.4235 31.9036 57.9155C31.9036 73.4081 44.5078 86.0123 60.0003 86.0123C63.076 86.0123 66.0628 85.5248 68.9217 84.5646V96.6155C68.066 96.8116 67.2038 96.9832 66.3408 97.1217C65.2043 97.3038 64.3688 98.284 64.3688 99.4348V106.727H55.6313V99.4348C55.6313 98.2845 54.7957 97.3038 53.6592 97.1217C47.6006 96.15 41.7591 93.7296 36.7669 90.1221C35.8348 89.448 34.5516 89.5507 33.7381 90.3642L28.5797 95.5221L22.402 89.3445L27.5578 84.1889C28.3713 83.3752 28.4738 82.0915 27.7997 81.1591C24.1887 76.1665 21.7657 70.3247 20.7919 64.2647C20.6093 63.1289 19.6292 62.2934 18.4788 62.2934H11.1977V53.557H18.4767C19.6275 53.557 20.6079 52.721 20.79 51.585C21.7613 45.5212 24.1826 39.6762 27.7927 34.6823C28.4665 33.75 28.3638 32.4663 27.5503 31.653L22.4025 26.5052L28.5802 20.3276L33.727 25.4745C34.5408 26.2882 35.824 26.3904 36.7566 25.7166C41.7511 22.1053 47.5962 19.6826 53.6597 18.7102C54.796 18.5276 55.6317 17.5474 55.6317 16.3966V9.12234H64.3688V16.3964C64.3688 17.5472 65.2043 18.5273 66.3406 18.7099C67.2047 18.8484 68.0672 19.02 68.9217 19.2159V31.2659ZM68.9215 36.2646V79.5647C66.0968 80.7335 63.1027 81.3265 60 81.3265C47.0911 81.3265 36.589 70.8244 36.589 57.9152C36.589 45.0066 47.0909 34.5045 60 34.5045C63.1038 34.5042 66.098 35.0965 68.9215 36.2646ZM73.6067 8.01305C73.6069 6.17812 74.2313 4.68563 74.9986 4.68563H86.2798C87.0474 4.68563 87.672 6.17812 87.672 8.01305V14.532H73.6069V8.01305H73.6067ZM80.6391 112.386L75.7142 102.459C76.2406 102.382 76.7789 102.259 77.326 102.085C78.4646 101.722 79.6491 101.117 80.6386 100.329C81.6284 101.118 82.8134 101.723 83.9522 102.086C84.4992 102.26 85.0378 102.383 85.5642 102.459L80.6391 112.386ZM87.6717 97.4276C87.6717 97.4283 87.6717 97.4292 87.6717 97.4302V97.6969C87.233 97.8905 86.6871 97.8837 86.2435 97.822C84.5501 97.5863 83.2336 96.5311 82.981 96.0804L82.9814 39.6122C82.9817 38.3187 81.9328 37.2694 80.6388 37.2694C79.3451 37.2694 78.296 38.3184 78.296 39.6122L78.2956 96.0785C78.0474 96.5266 76.7306 97.586 75.0333 97.8218C74.5903 97.8834 74.0452 97.8902 73.6067 97.6969V28.5923L87.6717 28.5928V97.4276ZM87.672 23.9074L73.6069 23.907V19.2176H87.672V23.9074ZM92.3574 21.2655L97.5968 26.505L92.449 31.6533C92.4167 31.6856 92.3874 31.7196 92.3574 31.7536V21.2655ZM97.5968 89.3438L92.3576 94.5832V84.0966C92.3853 84.1275 92.412 84.1589 92.4413 84.1884L97.5968 89.3438ZM101.518 62.2931C100.368 62.2931 99.3874 63.1282 99.2049 64.2645C98.2446 70.2377 95.877 75.9938 92.3574 80.9332V34.8968C95.8805 39.8412 98.2491 45.6042 99.2072 51.5843C99.3893 52.7205 100.37 53.5563 101.52 53.5563H108.802V62.2929H101.518V62.2931Z" fill="url(#paint1_linear)"/>
<path d="M32.4232 71.4068L32.3871 71.3336C31.8082 70.176 30.4057 69.7167 29.2488 70.2958C28.0917 70.8742 27.6274 72.2918 28.2061 73.4489L28.2323 73.5021C28.6427 74.3231 29.4701 74.7975 30.3295 74.7975C30.6813 74.7975 31.039 74.7178 31.3753 74.5497C32.5327 73.9711 33.0016 72.5639 32.4232 71.4068Z" fill="url(#paint2_linear)"/>
<path d="M30.4245 43.012C29.2306 42.5114 27.8583 43.0748 27.3584 44.268C25.5448 48.5992 24.6253 53.1944 24.6253 57.9248C24.6253 61.2728 25.0936 64.5892 26.0173 67.781C26.314 68.8064 27.2503 69.4736 28.2668 69.4736C28.4824 69.4736 28.7018 69.4434 28.9191 69.3803C30.1622 69.0208 30.8777 67.7217 30.5182 66.4788C29.7169 63.7101 29.3109 60.8322 29.3109 57.9248C29.3109 53.819 30.1081 49.833 31.6805 46.0778C32.1802 44.8837 31.6177 43.5117 30.4245 43.012Z" fill="url(#paint3_linear)"/>
<defs>
<linearGradient id="paint0_linear" x1="83.0004" y1="30.3956" x2="77.9917" y2="34.8638" gradientUnits="userSpaceOnUse">
<stop stop-color="#FFCB35"/>
<stop offset="0.0001" stop-color="#FFCB35"/>
<stop offset="0.557292" stop-color="#FF7949"/>
<stop offset="1" stop-color="#FF0066"/>
</linearGradient>
<linearGradient id="paint1_linear" x1="113.923" y1="-0.309906" x2="-8.96506" y2="100.359" gradientUnits="userSpaceOnUse">
<stop stop-color="#FFCB35"/>
<stop offset="0.0001" stop-color="#FFCB35"/>
<stop offset="0.557292" stop-color="#FF7949"/>
<stop offset="1" stop-color="#FF0066"/>
</linearGradient>
<linearGradient id="paint2_linear" x1="32.6901" y1="70.0334" x2="27.7481" y2="74.5384" gradientUnits="userSpaceOnUse">
<stop stop-color="#FFCB35"/>
<stop offset="0.0001" stop-color="#FFCB35"/>
<stop offset="0.557292" stop-color="#FF7949"/>
<stop offset="1" stop-color="#FF0066"/>
</linearGradient>
<linearGradient id="paint3_linear" x1="31.8922" y1="42.7604" x2="18.8137" y2="46.025" gradientUnits="userSpaceOnUse">
<stop stop-color="#FFCB35"/>
<stop offset="0.0001" stop-color="#FFCB35"/>
<stop offset="0.557292" stop-color="#FF7949"/>
<stop offset="1" stop-color="#FF0066"/>
</linearGradient>
</defs>
</svg>
