<svg width="120" height="120" viewBox="0 0 120 120" fill="none" xmlns="http://www.w3.org/2000/svg">
<g clip-path="url(#clip0)">
<path d="M113.752 102.522H110.663C108.52 97.4297 108.519 92.4612 110.66 87.3947H113.752C117.197 87.3947 120 84.5918 120 81.1463C120 77.701 117.197 74.8979 113.752 74.8979H101.321C102.903 73.0904 103.865 70.7271 103.865 68.1418V48.5644C103.865 42.9005 99.2576 38.2927 93.5939 38.2927H88.5391C88.968 37.4377 89.2109 36.4737 89.2109 35.4537C89.2109 31.9458 86.3604 29.0918 82.8565 29.0918H81.1177C79.5659 25.2558 79.5649 21.5091 81.1151 17.6977H82.8565C86.3604 17.6977 89.2109 14.8437 89.2109 11.3358C89.2109 7.8319 86.3604 4.9812 82.8565 4.9812H23.5589C13.4039 4.9812 5.14219 13.2399 5.14219 23.3911C5.14219 28.3003 7.06078 32.9225 10.5441 36.406C11.2366 37.0985 11.9759 37.7264 12.7516 38.2925H11.3904C7.94508 38.2925 5.14219 41.0953 5.14219 44.5409C5.14219 47.9864 7.94508 50.7893 11.3904 50.7893H14.4818C16.6235 55.8553 16.6228 60.8241 14.4795 65.9161H11.3904C7.94508 65.9161 5.14219 68.719 5.14219 72.1646C5.14219 73.4827 5.55352 74.7059 6.25289 75.7149C2.5807 77.2817 0 80.9295 0 85.1696V104.747C0 110.411 4.60453 115.019 10.2642 115.019H113.752C117.197 115.019 120 112.216 120 108.77C120 105.325 117.197 102.522 113.752 102.522ZM113.752 78.4135C115.259 78.4135 116.484 79.6395 116.484 81.1463C116.484 82.6531 115.259 83.8791 113.752 83.8791H82.0275C81.0565 83.8791 80.2697 84.6661 80.2697 85.6369C80.2697 86.6077 81.0565 87.3947 82.0275 87.3947H106.89C106.203 89.3241 105.783 91.261 105.624 93.2004C105.624 93.2004 104.922 96.6797 106.893 102.522H13.0055C12.7298 102.522 12.4969 102.289 12.4969 102.013V87.9036C12.4969 87.6279 12.7298 87.395 13.0055 87.395H30.4198L30.4209 93.1681C30.3101 94.8964 31.1541 95.5775 31.6723 95.8306C32.1975 96.0875 33.2766 96.3361 34.6043 95.1225C34.6134 95.1141 34.6226 95.1057 34.6315 95.0972L39.5449 90.4109L44.4584 95.0972C44.4673 95.1059 44.4764 95.1143 44.4855 95.1225C45.2627 95.8329 45.9546 96.0427 46.5009 96.0427C46.8912 96.0427 47.2071 95.9356 47.4265 95.8275C47.9454 95.5721 48.7882 94.8877 48.6689 93.1634L48.6712 87.395H73.3725C74.3435 87.395 75.1303 86.6079 75.1303 85.6372C75.1303 84.6664 74.3435 83.8793 73.3725 83.8793H48.6724L48.6748 78.4137H113.752V78.4135ZM19.5192 56.5955C19.3608 54.656 18.9326 52.7194 18.2461 50.7898H90.8602C91.136 50.7898 91.369 51.0228 91.369 51.2984V65.4078C91.369 65.6834 91.136 65.9164 90.8602 65.9164H48.6799L48.6823 60.1107H60.9844C61.9554 60.1107 62.7422 59.3236 62.7422 58.3528C62.7422 57.3821 61.9554 56.595 60.9844 56.595H19.5192V56.5955ZM30.4153 65.9166H18.2421C18.9281 63.9844 19.357 62.0478 19.5173 60.1109H30.4141L30.4153 65.9166ZM45.1666 60.1111L45.154 90.9024L40.7578 86.7094C40.0788 86.0616 39.0105 86.0616 38.3313 86.7094L33.9359 90.9019L33.9295 60.1109H45.1666V60.1111ZM8.65781 23.3914C8.65781 15.1786 15.3424 8.49706 23.5589 8.49706H82.8565C84.4219 8.49706 85.6952 9.77066 85.6952 11.336C85.6952 12.9054 84.4216 14.1823 82.8565 14.1823H50.4523C49.4815 14.1823 48.6945 14.9693 48.6945 15.9401C48.6945 16.9109 49.4815 17.6979 50.4523 17.6979H77.3695C76.1287 21.4793 76.1304 25.2943 77.3742 29.0921H23.5589C22.0472 29.0921 20.6159 28.4965 19.5354 27.4214C18.454 26.3344 17.8584 24.9033 17.8584 23.3914C17.8584 20.2519 20.4157 17.6979 23.5589 17.6979H41.7973C42.768 17.6979 43.5551 16.9109 43.5551 15.9401C43.5551 14.9693 42.768 14.1823 41.7973 14.1823H23.5589C18.4772 14.1823 14.3428 18.3134 14.3428 23.3914C14.3428 25.8389 15.3019 28.1508 17.0494 29.9072C18.7997 31.6486 21.1113 32.6077 23.5589 32.6077H82.8565C84.4219 32.6077 85.6952 33.8846 85.6952 35.4539C85.6952 37.0193 84.4216 38.2929 82.8565 38.2929H23.5589C19.5888 38.2929 15.8496 36.7402 13.0301 33.9204C10.2105 31.1009 8.65781 27.3617 8.65781 23.3914ZM11.3904 47.2742C9.88359 47.2742 8.65781 46.0484 8.65781 44.5414C8.65781 43.0346 9.88359 41.8085 11.3904 41.8085H93.5939C97.3191 41.8085 100.35 44.8393 100.35 48.5646V68.142C100.35 71.8674 97.3188 74.8981 93.5939 74.8981H48.6762L48.6785 69.4325H90.8599C93.079 69.4325 94.8844 67.6271 94.8844 65.4082V51.2989C94.8844 49.0798 93.079 47.2746 90.8599 47.2746H11.3904V47.2742ZM11.3904 69.4322H30.416L30.4172 74.8979H11.3906C9.88383 74.8979 8.65805 73.6718 8.65805 72.165C8.65781 70.6582 9.88359 69.4322 11.3904 69.4322ZM113.752 111.503H10.2642C6.54305 111.503 3.51562 108.472 3.51562 104.747V85.1696C3.51562 81.4442 6.54305 78.4135 10.2642 78.4135H30.4177L30.4188 83.8791H13.0055C10.7864 83.8791 8.98125 85.6845 8.98125 87.9033V102.013C8.98125 104.232 10.7866 106.037 13.0055 106.037H113.752C115.259 106.037 116.484 107.263 116.484 108.77C116.484 110.277 115.259 111.503 113.752 111.503Z" fill="url(#paint0_linear)"/>
</g>
<defs>
<linearGradient id="paint0_linear" x1="120.488" y1="4.69702" x2="5.55411" y2="119.875" gradientUnits="userSpaceOnUse">
<stop stop-color="#FFCB35"/>
<stop offset="0.0001" stop-color="#FFCB35"/>
<stop offset="0.557292" stop-color="#FF7949"/>
<stop offset="1" stop-color="#FF0066"/>
</linearGradient>
<clipPath id="clip0">
<rect width="120" height="120" fill="white"/>
</clipPath>
</defs>
</svg>
