<svg width="120" height="119" viewBox="0 0 120 119" fill="none" xmlns="http://www.w3.org/2000/svg">
<path d="M108.423 31.438H92.7698L101.682 24.2552C102.107 23.9396 102.476 23.5454 102.766 23.0831C103.475 21.9543 103.62 20.5895 103.162 19.3391L97.1299 2.84245C96.3208 0.629561 93.9241 -0.519068 91.6725 0.227239L88.1266 1.4026C87.2069 1.70753 86.7108 2.6937 87.0183 3.60549C87.3258 4.51751 88.3197 5.00978 89.2399 4.70485L92.7858 3.52926C93.2156 3.38725 93.6747 3.60642 93.8292 4.02943L99.8618 20.526C100.03 21.1454 99.7073 21.5217 99.1715 21.6252L89.2976 22.6931C85.9561 23.0546 82.7196 24.2341 79.9378 26.1042L73.3894 30.5062C73.3371 30.4967 72.2712 30.2982 72.2712 30.2982V25.31C72.2712 23.4513 71.8474 21.6895 71.0927 20.1123L74.2017 14.4805C75.9642 11.2877 78.6525 8.78408 81.9752 7.24011C82.8532 6.8322 83.2315 5.79584 82.8201 4.92518C82.4088 4.05453 81.3637 3.67963 80.486 4.0873C76.4831 5.94714 73.2452 8.96282 71.122 12.8085L68.8608 16.9044C66.6253 14.5881 63.4809 13.1411 60.0002 13.1411C56.5209 13.1411 53.3777 14.587 51.1425 16.9017L48.8787 12.8008C46.3683 8.25323 42.255 4.84384 37.2968 3.20015L28.3273 0.227239C26.0768 -0.518603 23.6791 0.629561 22.8698 2.84245L16.8373 19.3391C16.38 20.5895 16.5246 21.9543 17.2336 23.0831C17.4816 23.4778 17.787 23.8225 18.1352 24.1116C18.1359 24.1123 27.2252 31.438 27.2252 31.438H11.5774C9.0607 31.438 7.0132 33.4685 7.0132 35.9642V54.6909C7.0132 57.1866 9.0607 59.2171 11.5774 59.2171H15.2616V113.777C15.2616 116.657 17.6241 119 20.528 119H99.472C102.376 119 104.738 116.657 104.738 113.777V93.602C105.378 93.6204 105.952 93.6278 106.471 93.6278C106.586 93.6278 106.699 93.6276 106.808 93.6269C108.445 93.6174 109.847 92.4518 110.144 90.855C111.05 85.964 112.611 73.8492 107.548 67.0072C106.784 65.9745 105.824 65.1157 104.738 64.4659V59.2171H108.423C110.939 59.2171 112.987 57.1866 112.987 54.6909V35.9642C112.987 33.4685 110.939 31.438 108.423 31.438ZM81.9077 28.9862C84.2173 27.4336 86.9044 26.4544 89.6784 26.1541L94.3912 25.6444L87.203 31.438H78.2604L81.9077 28.9862ZM80.0625 43.3857C79.6483 48.3476 82.256 53.0444 86.7054 55.351L87.4469 55.7354H74.4211V43.2955C74.4211 42.334 73.6352 41.5546 72.6656 41.5546C71.696 41.5546 70.9101 42.334 70.9101 43.2955V55.7354H49.0896V34.9197H75.5458C78.5241 36.569 80.3608 39.8119 80.0625 43.3857ZM60 16.623C64.8302 16.623 68.76 20.52 68.76 25.31V29.8062C68.1019 29.967 67.5691 30.5002 67.4484 31.2054C67.4351 31.2835 67.429 31.3611 67.4264 31.438H51.24V25.3102C51.24 20.52 55.1698 16.623 60 16.623ZM20.138 20.526L26.1705 4.02943C26.3252 3.60642 26.7841 3.38655 27.214 3.52926L36.183 6.5024C40.2996 7.86695 43.7142 10.6974 45.7983 14.4728L48.9091 20.1081C48.1533 21.6865 47.7288 23.4497 47.7288 25.31V31.2579L40.0619 26.1042C37.2801 24.2341 34.0434 23.0543 30.7022 22.6931L20.8282 21.6252C20.283 21.5185 19.9734 21.1457 20.138 20.526ZM25.6031 25.644L30.3216 26.1544C33.0956 26.4544 35.7827 27.4336 38.0923 28.9864L41.7396 31.4382H32.7921L25.6031 25.644ZM10.5239 54.6909V35.9642C10.5239 35.3883 10.9964 34.9197 11.5772 34.9197H45.5787V55.7354H11.5774C10.9964 55.7354 10.5239 55.2668 10.5239 54.6909ZM18.7725 113.777V59.2171H45.5787V61.8132C45.5787 62.7748 46.3645 63.5541 47.3341 63.5541C48.3037 63.5541 49.0896 62.7748 49.0896 61.8132V59.2171H70.9101V115.518H49.0896V70.4305C49.0896 69.469 48.3037 68.6897 47.3341 68.6897C46.3645 68.6897 45.5787 69.469 45.5787 70.4305V115.518H20.528C19.56 115.518 18.7725 114.737 18.7725 113.777ZM101.227 113.777C101.227 114.737 100.44 115.518 99.472 115.518H74.4213V59.2171H91.0985C92.0011 60.7896 92.4164 62.6328 92.2153 64.5309L91.9097 67.419C91.2136 68.5221 90.7577 69.7597 90.578 71.0615C88.3022 70.9718 86.0782 71.703 84.2845 73.161C82.2752 74.7942 81.0808 77.1231 80.9205 79.719C80.7572 82.367 81.7282 84.9922 83.5844 86.9218C87.862 91.3675 95.4394 92.8978 101.228 93.397V113.777H101.227ZM106.705 90.1459C103.056 90.158 91.189 89.7822 86.1246 84.5188C84.9403 83.2879 84.3206 81.616 84.4247 79.9319C84.5245 78.3143 85.2651 76.8658 86.5099 75.8541C87.57 74.9925 88.8726 74.5372 90.2126 74.5372C90.6295 74.5372 91.05 74.5813 91.4681 74.6708C92.1049 74.8072 92.7576 74.648 93.2571 74.2332C93.7565 73.8183 94.0291 73.2093 94.0052 72.562C93.9382 70.7764 94.6826 69.0876 96.0471 67.9283C97.2696 66.8896 98.838 66.4194 100.46 66.6053C102.151 66.7982 103.702 67.6958 104.717 69.0671C109.058 74.933 107.359 86.5799 106.705 90.1459ZM101.227 63.198C101.106 63.1794 100.985 63.1606 100.862 63.1466C99.0757 62.9423 97.3282 63.2357 95.7698 63.981C95.8235 62.3236 95.5434 60.7104 94.9744 59.2173H101.227V63.198ZM109.476 54.6909C109.476 55.2668 109.004 55.7354 108.423 55.7354H92.9322C91.8949 54.4945 90.6009 53.4416 89.0899 52.6581L88.3322 52.2653C85.1367 50.6089 83.264 47.236 83.5617 43.6727C83.8195 40.5817 82.9055 37.5305 80.988 35.0803C80.9451 35.0254 80.8997 34.9734 80.8561 34.9195H108.423C109.004 34.9195 109.476 35.388 109.476 35.964V54.6909Z" fill="url(#paint0_linear)"/>
<defs>
<linearGradient id="paint0_linear" x1="113.417" y1="-0.307323" x2="-8.42105" y2="99.3979" gradientUnits="userSpaceOnUse">
<stop stop-color="#FFCB35"/>
<stop offset="0.0001" stop-color="#FFCB35"/>
<stop offset="0.557292" stop-color="#FF7949"/>
<stop offset="1" stop-color="#FF0066"/>
</linearGradient>
</defs>
</svg>
