<svg width="120" height="120" viewBox="0 0 120 120" fill="none" xmlns="http://www.w3.org/2000/svg">
<path d="M47.5481 93.5064C47.8368 93.67 48.1638 93.754 48.4956 93.7499C48.8274 93.7457 49.1522 93.6536 49.4367 93.483L58.8117 87.858C59.0894 87.6914 59.3192 87.4557 59.4787 87.174C59.6382 86.8922 59.7221 86.5739 59.7221 86.2502C59.7221 85.9264 59.6382 85.6081 59.4787 85.3263C59.3192 85.0446 59.0894 84.8089 58.8117 84.6423L49.4367 79.0173C49.1522 78.8466 48.8275 78.7544 48.4957 78.7502C48.1639 78.7459 47.8369 78.8298 47.5481 78.9933C47.2594 79.1568 47.0192 79.3939 46.852 79.6806C46.6849 79.9672 46.5968 80.2931 46.5968 80.6249V91.8749C46.5968 92.2067 46.6849 92.5326 46.8521 92.8192C47.0192 93.1058 47.2594 93.343 47.5481 93.5064ZM50.3468 83.9364L54.2025 86.2499L50.3468 88.5634V83.9364Z" fill="url(#paint0_linear)"/>
<path d="M112.221 9.375H80.9719L73.9718 4.125C73.6472 3.88158 73.2525 3.75 72.8468 3.75C72.4411 3.75 72.0464 3.88158 71.7218 4.125L64.722 9.375H33.4711C32.9738 9.375 32.4969 9.57254 32.1453 9.92418C31.7936 10.2758 31.5961 10.7527 31.5961 11.25V25.1569C30.241 25.7475 29.0448 26.6504 28.1055 27.7918C27.1662 28.9333 26.5103 30.2808 26.1915 31.7243C25.8728 33.1677 25.9001 34.6661 26.2713 36.097C26.6426 37.5279 27.3472 38.8506 28.3275 39.957C28.0004 40.2191 27.6881 40.4992 27.3921 40.796C26.3441 41.838 25.5131 43.0775 24.9474 44.4429C24.3816 45.8082 24.0923 47.2721 24.0961 48.75V63.75H15.4688C14.3503 63.7513 13.278 64.1962 12.4871 64.9871C11.6962 65.778 11.2513 66.8503 11.25 67.9688V105H7.5C7.00272 105 6.52581 105.198 6.17417 105.549C5.82254 105.901 5.625 106.378 5.625 106.875V109.219C5.62711 111.083 6.36858 112.87 7.68673 114.188C9.00489 115.506 10.7921 116.248 12.6563 116.25H77.0656C78.8366 116.251 80.5423 115.581 81.8393 114.375H97.2218C97.7191 114.375 98.196 114.177 98.5476 113.826C98.8993 113.474 99.0968 112.997 99.0968 112.5V106.875H95.3468V110.625H83.9562C84.0501 110.162 84.0972 109.691 84.0968 109.219V106.875C84.0968 106.378 83.8993 105.901 83.5476 105.549C83.196 105.198 82.7191 105 82.2218 105H78.75V67.9688C78.7487 66.8503 78.3038 65.778 77.5129 64.9871C76.722 64.1962 75.6497 63.7513 74.5313 63.75H46.5961V60H95.3461V65.625H99.0961V60H112.221C112.718 60 113.195 59.8025 113.547 59.4508C113.899 59.0992 114.096 58.6223 114.096 58.125V11.25C114.096 10.7527 113.899 10.2758 113.547 9.92418C113.195 9.57254 112.718 9.375 112.221 9.375ZM72.8461 7.96875L74.7211 9.375H70.9711L72.8461 7.96875ZM35.3461 13.125H110.346V48.75H55.061L60.3795 46.7557C60.8105 46.594 61.167 46.2794 61.381 45.8719C61.5951 45.4643 61.6517 44.9922 61.5401 44.5455L60.2627 39.4362L70.5197 27.4704C70.68 27.2834 70.8018 27.0668 70.8783 26.8327C70.9549 26.5987 70.9845 26.3518 70.9657 26.1063C70.9468 25.8608 70.8798 25.6214 70.7684 25.4018C70.657 25.1822 70.5034 24.9867 70.3165 24.8264C70.1295 24.6661 69.9129 24.5443 69.6788 24.4677C69.4448 24.3912 69.1979 24.3616 68.9524 24.3804C68.7069 24.3993 68.4675 24.4663 68.2479 24.5777C68.0283 24.6891 67.8328 24.8427 67.6725 25.0296L58.4909 35.7405C58.0701 35.5857 57.6078 35.5868 57.1877 35.7436L43.4133 40.9097C43.0839 40.5712 42.7338 40.2536 42.3649 39.9586C43.5621 38.6071 44.3433 36.9386 44.6147 35.1537C44.886 33.3687 44.636 31.5434 43.8945 29.8972C43.1531 28.2511 41.9519 26.8541 40.4353 25.8745C38.9188 24.8948 37.1515 24.3741 35.3461 24.375V13.125ZM80.3461 109.219C80.3452 110.089 79.9992 110.923 79.384 111.538C78.7689 112.153 77.9348 112.499 77.0648 112.5H12.6563C11.7863 112.499 10.9522 112.153 10.3371 111.538C9.72193 110.923 9.37593 110.089 9.375 109.219V108.75H80.3468L80.3461 109.219ZM27.7788 89.2734C27.1544 88.8147 26.6874 88.1739 26.442 87.439C26.1966 86.7041 26.1849 85.9113 26.4084 85.1695C26.6319 84.4276 27.0797 83.7732 27.6902 83.2962C28.3007 82.8192 29.044 82.543 29.8179 82.5056C29.8779 82.5026 29.9393 82.5012 30.0007 82.5012C30.7907 82.5009 31.5606 82.7502 32.2004 83.2134C32.8403 83.6767 33.3175 84.3304 33.5637 85.081C33.81 85.8316 33.8128 86.6408 33.5718 87.3931C33.3308 88.1455 32.8583 88.8024 32.2216 89.2702C31.9622 89.4606 31.7561 89.7147 31.6233 90.0079C31.4904 90.3011 31.4354 90.6236 31.4633 90.9443C31.4912 91.265 31.6012 91.573 31.7827 91.8389C31.9642 92.1047 32.2111 92.3193 32.4996 92.4621C33.1812 92.7998 33.7868 93.2731 34.2792 93.8529C34.5512 94.1715 34.922 94.3899 35.3325 94.4732C35.743 94.5565 36.1696 94.4999 36.5442 94.3125L39.8768 92.6454L40.5539 94.6767L36.6619 96.6234C36.3505 96.779 36.0887 97.0182 35.9055 97.3141C35.7224 97.6101 35.6253 97.9512 35.625 98.2992V105H24.375V97.5C24.3753 96.4526 24.6678 95.426 25.2197 94.5358C25.7716 93.6455 26.561 92.927 27.499 92.4609C27.7866 92.3181 28.0328 92.1037 28.2138 91.8383C28.3948 91.573 28.5046 91.2656 28.5327 90.9457C28.5608 90.6257 28.5062 90.3039 28.3742 90.0111C28.2422 89.7183 28.0372 89.4643 27.7788 89.2734ZM44.625 95.032L42.75 89.407C42.665 89.1522 42.5263 88.9185 42.3432 88.722C42.1601 88.5254 41.9368 88.3705 41.6886 88.2677C41.4404 88.1649 41.173 88.1166 40.9046 88.1262C40.6361 88.1357 40.3728 88.2029 40.1325 88.323L36.3675 90.2065C37.0024 89.1871 37.3829 88.03 37.4771 86.8328C37.5713 85.6356 37.3763 84.4332 36.9086 83.3271C36.4409 82.221 35.7142 81.2435 34.7897 80.477C33.8651 79.7105 32.7699 79.1774 31.5963 78.9227V75H67.5V97.5H43.2891L43.6852 97.302C44.0888 97.1 44.406 96.7593 44.5786 96.3424C44.7513 95.9254 44.7677 95.4602 44.625 95.032ZM75 67.9688V105H39.375V101.25H69.375C69.8723 101.25 70.3492 101.052 70.7008 100.701C71.0525 100.349 71.25 99.8723 71.25 99.375V73.125C71.25 72.6277 71.0525 72.1508 70.7008 71.7992C70.3492 71.4475 69.8723 71.25 69.375 71.25H29.7211C29.2238 71.25 28.7469 71.4475 28.3953 71.7992C28.0436 72.1508 27.8461 72.6277 27.8461 73.125V79.0631C26.7171 79.4012 25.6836 80.0007 24.8297 80.813C23.9758 81.6253 23.3254 82.6275 22.9314 83.7383C22.5374 84.849 22.4108 86.0371 22.5619 87.2059C22.7131 88.3747 23.1377 89.4915 23.8013 90.4655C23.6536 90.5958 23.5099 90.7307 23.3702 90.8702C22.497 91.7389 21.8048 92.7722 21.3336 93.9102C20.8624 95.0481 20.6215 96.2683 20.625 97.5V105H15V67.9688C15 67.8444 15.0494 67.7252 15.1373 67.6373C15.2252 67.5494 15.3444 67.5 15.4688 67.5H74.5313C74.6556 67.5 74.7748 67.5494 74.8627 67.6373C74.9506 67.7252 75 67.8444 75 67.9688ZM27.8461 63.75V48.75C27.8474 47.3039 28.2661 45.889 29.0519 44.675C29.8376 43.461 30.9571 42.4996 32.2758 41.9062C32.589 41.7661 32.8577 41.5426 33.0526 41.2603C33.2476 40.978 33.3614 40.6476 33.3815 40.305C33.4017 39.9625 33.3275 39.621 33.167 39.3178C33.0065 39.0145 32.7658 38.7611 32.4713 38.5852C31.4126 37.9552 30.59 36.9951 30.1299 35.8524C29.6697 34.7096 29.5974 33.4474 29.9241 32.2596C30.2508 31.0718 30.9584 30.0241 31.9382 29.2774C32.918 28.5307 34.1158 28.1263 35.3477 28.1263C36.5796 28.1263 37.7775 28.5307 38.7573 29.2774C39.7371 30.0241 40.4447 31.0718 40.7714 32.2596C41.098 33.4474 41.0257 34.7096 40.5656 35.8524C40.1054 36.9951 39.2829 37.9552 38.2242 38.5852C37.9298 38.761 37.6892 39.0143 37.5287 39.3174C37.3682 39.6205 37.294 39.9618 37.314 40.3042C37.334 40.6466 37.4475 40.9769 37.6422 41.2593C37.8369 41.5416 38.1054 41.7652 38.4183 41.9055C39.577 42.427 40.5848 43.2333 41.348 44.2493C41.5913 44.5733 41.933 44.8098 42.322 44.9233C42.7109 45.0369 43.1262 45.0213 43.5056 44.8791L56.5385 39.9916L57.4976 43.8302L44.0625 48.8693C43.7052 49.0034 43.3972 49.2433 43.1799 49.557C42.9625 49.8707 42.8461 50.2433 42.8461 50.625V63.75H27.8461ZM46.5961 56.25V52.5H110.346V56.25H46.5961Z" fill="url(#paint1_linear)"/>
<path d="M97.2218 69.375C94.6259 69.375 92.0883 70.1448 89.9299 71.587C87.7716 73.0292 86.0893 75.079 85.0959 77.4773C84.1025 79.8756 83.8426 82.5146 84.349 85.0606C84.8554 87.6066 86.1055 89.9452 87.941 91.7808C89.7766 93.6163 92.1152 94.8664 94.6612 95.3728C97.2072 95.8792 99.8462 95.6193 102.245 94.6259C104.643 93.6325 106.693 91.9503 108.135 89.7919C109.577 87.6335 110.347 85.0959 110.347 82.5C110.343 79.0203 108.959 75.6842 106.498 73.2236C104.038 70.7631 100.702 69.379 97.2218 69.375ZM106.409 80.625H103.289C103.109 78.9814 102.688 77.3732 102.04 75.8522L101.263 74.0414C102.57 74.6684 103.714 75.5887 104.607 76.7307C105.499 77.8727 106.116 79.2055 106.408 80.625H106.409ZM97.2218 90.8646L95.8519 87.6708C95.4024 86.6172 95.0934 85.5091 94.9327 84.375H99.5114C99.3507 85.5086 99.0418 86.6163 98.5924 87.6694L97.2218 90.8646ZM94.9324 80.625C95.0931 79.4914 95.402 78.3838 95.8512 77.3306L97.2218 74.1354L98.5917 77.3292C99.0413 78.3828 99.3504 79.4909 99.5112 80.625H94.9324ZM93.1817 74.0416L92.4042 75.8538C91.756 77.3743 91.3353 78.9819 91.1557 80.625H88.0355C88.3282 79.2054 88.9449 77.8726 89.8376 76.7306C90.7302 75.5887 91.8747 74.6684 93.1817 74.0416ZM88.0355 84.375H91.1557C91.3355 86.0186 91.7565 87.6268 92.4049 89.1478L93.1817 90.9584C91.8747 90.3316 90.7302 89.4113 89.8376 88.2694C88.9449 87.1274 88.3282 85.7946 88.0355 84.375ZM101.262 90.9586L102.039 89.1462C102.688 87.6258 103.109 86.0181 103.289 84.375H106.409C106.116 85.7947 105.5 87.1275 104.607 88.2695C103.714 89.4115 102.569 90.3318 101.262 90.9586Z" fill="url(#paint2_linear)"/>
<path d="M99.0968 99.375H95.3468V103.125H99.0968V99.375Z" fill="url(#paint3_linear)"/>
<defs>
<linearGradient id="paint0_linear" x1="59.7754" y1="78.7113" x2="44.4732" y2="91.0155" gradientUnits="userSpaceOnUse">
<stop stop-color="#FFCB35"/>
<stop offset="0.0001" stop-color="#FFCB35"/>
<stop offset="0.557292" stop-color="#FF7949"/>
<stop offset="1" stop-color="#FF0066"/>
</linearGradient>
<linearGradient id="paint1_linear" x1="114.537" y1="3.45946" x2="-2.11386" y2="106.815" gradientUnits="userSpaceOnUse">
<stop stop-color="#FFCB35"/>
<stop offset="0.0001" stop-color="#FFCB35"/>
<stop offset="0.557292" stop-color="#FF7949"/>
<stop offset="1" stop-color="#FF0066"/>
</linearGradient>
<linearGradient id="paint2_linear" x1="110.453" y1="69.3072" x2="83.1331" y2="94.4127" gradientUnits="userSpaceOnUse">
<stop stop-color="#FFCB35"/>
<stop offset="0.0001" stop-color="#FFCB35"/>
<stop offset="0.557292" stop-color="#FF7949"/>
<stop offset="1" stop-color="#FF0066"/>
</linearGradient>
<linearGradient id="paint3_linear" x1="99.112" y1="99.3653" x2="95.2091" y2="102.952" gradientUnits="userSpaceOnUse">
<stop stop-color="#FFCB35"/>
<stop offset="0.0001" stop-color="#FFCB35"/>
<stop offset="0.557292" stop-color="#FF7949"/>
<stop offset="1" stop-color="#FF0066"/>
</linearGradient>
</defs>
</svg>
