<svg width="120" height="120" viewBox="0 0 120 120" fill="none" xmlns="http://www.w3.org/2000/svg">
<path d="M114.375 15H108.75V13.125C108.75 12.6277 108.552 12.1508 108.201 11.7992C107.849 11.4475 107.372 11.25 106.875 11.25H93.75V9.375C93.75 7.88316 93.1574 6.45242 92.1025 5.39752C91.0476 4.34263 89.6168 3.75 88.125 3.75C86.6332 3.75 85.2024 4.34263 84.1475 5.39752C83.0926 6.45242 82.5 7.88316 82.5 9.375V11.25H78.75V9.375C78.75 7.88316 78.1574 6.45242 77.1025 5.39752C76.0476 4.34263 74.6168 3.75 73.125 3.75C71.6332 3.75 70.2024 4.34263 69.1475 5.39752C68.0926 6.45242 67.5 7.88316 67.5 9.375V11.25H45V9.375C45 7.88316 44.4074 6.45242 43.3525 5.39752C42.2976 4.34263 40.8668 3.75 39.375 3.75C37.8832 3.75 36.4524 4.34263 35.3975 5.39752C34.3426 6.45242 33.75 7.88316 33.75 9.375V11.25H30V9.375C30 7.88316 29.4074 6.45242 28.3525 5.39752C27.2976 4.34263 25.8668 3.75 24.375 3.75C22.8832 3.75 21.4524 4.34263 20.3975 5.39752C19.3426 6.45242 18.75 7.88316 18.75 9.375V11.25H5.625C5.12772 11.25 4.65081 11.4475 4.29917 11.7992C3.94754 12.1508 3.75 12.6277 3.75 13.125V106.875C3.75 107.372 3.94754 107.849 4.29917 108.201C4.65081 108.552 5.12772 108.75 5.625 108.75H7.5V114.375C7.5 114.872 7.69754 115.349 8.04918 115.701C8.40081 116.052 8.87772 116.25 9.375 116.25H114.375C114.872 116.25 115.349 116.052 115.701 115.701C116.052 115.349 116.25 114.872 116.25 114.375V16.875C116.25 16.3777 116.052 15.9008 115.701 15.5492C115.349 15.1975 114.872 15 114.375 15ZM7.5 105V37.5H105V105H7.5ZM86.25 9.375C86.25 8.87772 86.4475 8.40081 86.7992 8.04918C87.1508 7.69754 87.6277 7.5 88.125 7.5C88.6223 7.5 89.0992 7.69754 89.4508 8.04918C89.8025 8.40081 90 8.87772 90 9.375V11.25H86.25V9.375ZM71.25 9.375C71.25 8.87772 71.4475 8.40081 71.7992 8.04918C72.1508 7.69754 72.6277 7.5 73.125 7.5C73.6223 7.5 74.0992 7.69754 74.4508 8.04918C74.8025 8.40081 75 8.87772 75 9.375V11.25H71.25V9.375ZM37.5 9.375C37.5 8.87772 37.6975 8.40081 38.0492 8.04918C38.4008 7.69754 38.8777 7.5 39.375 7.5C39.8723 7.5 40.3492 7.69754 40.7008 8.04918C41.0525 8.40081 41.25 8.87772 41.25 9.375V11.25H37.5V9.375ZM22.5 9.375C22.5 8.87772 22.6975 8.40081 23.0492 8.04918C23.4008 7.69754 23.8777 7.5 24.375 7.5C24.8723 7.5 25.3492 7.69754 25.7008 8.04918C26.0525 8.40081 26.25 8.87772 26.25 9.375V11.25H22.5V9.375ZM18.75 15V16.875C18.7517 18.3663 19.3449 19.796 20.3994 20.8506C21.454 21.9051 22.8837 22.4983 24.375 22.5C24.8723 22.5 25.3492 22.3025 25.7008 21.9508C26.0525 21.5992 26.25 21.1223 26.25 20.625C26.25 20.1277 26.0525 19.6508 25.7008 19.2992C25.3492 18.9475 24.8723 18.75 24.375 18.75C23.8779 18.7494 23.4013 18.5517 23.0498 18.2002C22.6983 17.8487 22.5006 17.3721 22.5 16.875V15H33.75V16.875C33.7517 18.3663 34.3449 19.796 35.3994 20.8506C36.454 21.9051 37.8837 22.4983 39.375 22.5C39.8723 22.5 40.3492 22.3025 40.7008 21.9508C41.0525 21.5992 41.25 21.1223 41.25 20.625C41.25 20.1277 41.0525 19.6508 40.7008 19.2992C40.3492 18.9475 39.8723 18.75 39.375 18.75C38.8779 18.7494 38.4013 18.5517 38.0498 18.2002C37.6983 17.8487 37.5006 17.3721 37.5 16.875V15H67.5V16.875C67.5017 18.3663 68.0949 19.796 69.1494 20.8506C70.204 21.9051 71.6337 22.4983 73.125 22.5C73.6223 22.5 74.0992 22.3025 74.4508 21.9508C74.8025 21.5992 75 21.1223 75 20.625C75 20.1277 74.8025 19.6508 74.4508 19.2992C74.0992 18.9475 73.6223 18.75 73.125 18.75C72.6279 18.7494 72.1513 18.5517 71.7998 18.2002C71.4483 17.8487 71.2506 17.3721 71.25 16.875V15H82.5V16.875C82.5017 18.3663 83.0949 19.796 84.1494 20.8506C85.204 21.9051 86.6337 22.4983 88.125 22.5C88.6223 22.5 89.0992 22.3025 89.4508 21.9508C89.8025 21.5992 90 21.1223 90 20.625C90 20.1277 89.8025 19.6508 89.4508 19.2992C89.0992 18.9475 88.6223 18.75 88.125 18.75C87.6279 18.7494 87.1513 18.5517 86.7998 18.2002C86.4483 17.8487 86.2506 17.3721 86.25 16.875V15H105V33.75H7.5V15H18.75ZM112.5 112.5H11.25V108.75H106.875C107.372 108.75 107.849 108.552 108.201 108.201C108.552 107.849 108.75 107.372 108.75 106.875V18.75H112.5V112.5Z" fill="url(#paint0_linear)"/>
<path d="M41.25 80.625C41.2495 78.768 40.7892 76.9399 39.9102 75.3041C39.0312 73.6682 37.7609 72.2754 36.2126 71.25C37.834 70.1754 39.1491 68.6988 40.0294 66.9641C40.9097 65.2295 41.3251 63.2963 41.2351 61.3532C41.1451 59.41 40.5528 57.5235 39.5159 55.8776C38.479 54.2318 37.0331 52.883 35.3193 51.9629C33.6054 51.0428 31.6823 50.5829 29.7376 50.628C27.7929 50.6732 25.8932 51.2218 24.2239 52.2204C22.5546 53.2191 21.1727 54.6335 20.2133 56.3256C19.2539 58.0178 18.7498 59.9298 18.75 61.875C18.75 62.3723 18.9475 62.8492 19.2992 63.2008C19.6508 63.5525 20.1277 63.75 20.625 63.75C21.1223 63.75 21.5992 63.5525 21.9508 63.2008C22.3025 62.8492 22.5 62.3723 22.5 61.875C22.5 60.3917 22.9399 58.9416 23.764 57.7082C24.5881 56.4749 25.7594 55.5136 27.1299 54.9459C28.5003 54.3783 30.0083 54.2297 31.4632 54.5191C32.918 54.8085 34.2544 55.5228 35.3033 56.5717C36.3522 57.6206 37.0665 58.957 37.3559 60.4118C37.6453 61.8667 37.4968 63.3747 36.9291 64.7451C36.3614 66.1156 35.4001 67.2869 34.1668 68.111C32.9334 68.9352 31.4834 69.375 30 69.375C29.5027 69.375 29.0258 69.5726 28.6742 69.9242C28.3225 70.2758 28.125 70.7527 28.125 71.25C28.125 71.7473 28.3225 72.2242 28.6742 72.5758C29.0258 72.9275 29.5027 73.125 30 73.125C31.4834 73.125 32.9334 73.5649 34.1668 74.389C35.4001 75.2131 36.3614 76.3844 36.9291 77.7549C37.4968 79.1253 37.6453 80.6333 37.3559 82.0882C37.0665 83.5431 36.3522 84.8794 35.3033 85.9283C34.2544 86.9772 32.918 87.6915 31.4632 87.9809C30.0083 88.2703 28.5003 88.1218 27.1299 87.5541C25.7594 86.9865 24.5881 86.0252 23.764 84.7918C22.9399 83.5584 22.5 82.1084 22.5 80.625C22.5 80.1277 22.3025 79.6508 21.9508 79.2992C21.5992 78.9476 21.1223 78.75 20.625 78.75C20.1277 78.75 19.6508 78.9476 19.2992 79.2992C18.9475 79.6508 18.75 80.1277 18.75 80.625C18.75 83.6087 19.9353 86.4702 22.045 88.58C24.1548 90.6898 27.0163 91.875 30 91.875C32.9837 91.875 35.8452 90.6898 37.955 88.58C40.0647 86.4702 41.25 83.6087 41.25 80.625Z" fill="url(#paint1_linear)"/>
<path d="M82.5 69.375H76.875V54.375H90C90.4973 54.375 90.9742 54.1775 91.3258 53.8258C91.6775 53.4742 91.875 52.9973 91.875 52.5C91.875 52.0027 91.6775 51.5258 91.3258 51.1742C90.9742 50.8225 90.4973 50.625 90 50.625H75C74.5027 50.625 74.0258 50.8225 73.6742 51.1742C73.3225 51.5258 73.125 52.0027 73.125 52.5V71.25C73.125 71.7473 73.3225 72.2242 73.6742 72.5758C74.0258 72.9275 74.5027 73.125 75 73.125H82.5C83.9834 73.125 85.4334 73.5649 86.6668 74.389C87.9002 75.2131 88.8614 76.3844 89.4291 77.7549C89.9968 79.1253 90.1453 80.6333 89.8559 82.0882C89.5665 83.543 88.8522 84.8794 87.8033 85.9283C86.7544 86.9772 85.418 87.6915 83.9632 87.9809C82.5083 88.2703 81.0003 88.1218 79.6299 87.5541C78.2594 86.9864 77.0881 86.0251 76.264 84.7918C75.4399 83.5584 75 82.1084 75 80.625C75 80.1277 74.8025 79.6508 74.4508 79.2992C74.0992 78.9475 73.6223 78.75 73.125 78.75C72.6277 78.75 72.1508 78.9475 71.7992 79.2992C71.4475 79.6508 71.25 80.1277 71.25 80.625C71.25 82.85 71.9098 85.0251 73.146 86.8752C74.3821 88.7252 76.1391 90.1672 78.1948 91.0186C80.2505 91.8701 82.5125 92.0929 84.6948 91.6588C86.8771 91.2248 88.8816 90.1533 90.455 88.58C92.0283 87.0066 93.0998 85.0021 93.5338 82.8198C93.9679 80.6375 93.7451 78.3755 92.8936 76.3198C92.0422 74.2641 90.6002 72.5071 88.7502 71.271C86.9001 70.0348 84.725 69.375 82.5 69.375Z" fill="url(#paint2_linear)"/>
<path d="M56.25 54.375C58.2384 54.3772 60.1448 55.1681 61.5508 56.5742C62.9569 57.9802 63.7478 59.8866 63.75 61.875C63.75 62.3723 63.9475 62.8492 64.2992 63.2008C64.6508 63.5525 65.1277 63.75 65.625 63.75C66.1223 63.75 66.5992 63.5525 66.9508 63.2008C67.3025 62.8492 67.5 62.3723 67.5 61.875C67.5 58.8913 66.3147 56.0298 64.2049 53.92C62.0952 51.8103 59.2337 50.625 56.25 50.625C53.2663 50.625 50.4048 51.8103 48.295 53.92C46.1853 56.0298 45 58.8913 45 61.875V80.625C44.9963 83.2056 45.8786 85.7092 47.4994 87.7173C49.1203 89.7253 51.3813 91.1161 53.9046 91.6571C56.4278 92.198 59.0603 91.8563 61.3618 90.6891C63.6634 89.5219 65.4944 87.6 66.5489 85.2446C67.6033 82.8893 67.8172 80.2434 67.1548 77.7493C66.4924 75.2552 64.9939 73.0641 62.9097 71.5423C60.8256 70.0206 58.2822 69.2604 55.7048 69.389C53.1275 69.5176 50.6723 70.5271 48.75 72.2487V61.875C48.7522 59.8866 49.5431 57.9802 50.9492 56.5742C52.3552 55.1681 54.2616 54.3772 56.25 54.375ZM56.25 73.125C57.7334 73.125 59.1834 73.5649 60.4168 74.389C61.6501 75.2131 62.6114 76.3844 63.1791 77.7549C63.7467 79.1253 63.8953 80.6333 63.6059 82.0882C63.3165 83.543 62.6022 84.8794 61.5533 85.9283C60.5044 86.9772 59.168 87.6915 57.7132 87.9809C56.2583 88.2703 54.7503 88.1218 53.3799 87.5541C52.0094 86.9864 50.8381 86.0252 50.014 84.7918C49.1899 83.5584 48.75 82.1084 48.75 80.625C48.7522 78.6366 49.5431 76.7302 50.9492 75.3242C52.3552 73.9181 54.2616 73.1272 56.25 73.125Z" fill="url(#paint3_linear)"/>
<defs>
<linearGradient id="paint0_linear" x1="116.707" y1="3.45946" x2="-0.38006" y2="111.054" gradientUnits="userSpaceOnUse">
<stop stop-color="#FFCB35"/>
<stop offset="0.0001" stop-color="#FFCB35"/>
<stop offset="0.557292" stop-color="#FF7949"/>
<stop offset="1" stop-color="#FF0066"/>
</linearGradient>
<linearGradient id="paint1_linear" x1="41.3414" y1="50.5185" x2="6.82203" y2="67.8208" gradientUnits="userSpaceOnUse">
<stop stop-color="#FFCB35"/>
<stop offset="0.0001" stop-color="#FFCB35"/>
<stop offset="0.557292" stop-color="#FF7949"/>
<stop offset="1" stop-color="#FF0066"/>
</linearGradient>
<linearGradient id="paint2_linear" x1="93.8414" y1="50.5185" x2="59.322" y2="67.8208" gradientUnits="userSpaceOnUse">
<stop stop-color="#FFCB35"/>
<stop offset="0.0001" stop-color="#FFCB35"/>
<stop offset="0.557292" stop-color="#FF7949"/>
<stop offset="1" stop-color="#FF0066"/>
</linearGradient>
<linearGradient id="paint3_linear" x1="67.6239" y1="50.5184" x2="33.0639" y2="67.8524" gradientUnits="userSpaceOnUse">
<stop stop-color="#FFCB35"/>
<stop offset="0.0001" stop-color="#FFCB35"/>
<stop offset="0.557292" stop-color="#FF7949"/>
<stop offset="1" stop-color="#FF0066"/>
</linearGradient>
</defs>
</svg>
