<svg width="110" height="103" viewBox="0 0 110 103" fill="none" xmlns="http://www.w3.org/2000/svg">
<path d="M109.181 1.07325C108.23 0.011117 106.728 -0.273689 105.484 0.268085L1.93008 45.4516C0.782828 45.9527 0.0287325 47.0726 0.000803078 48.3232C-0.0271264 49.5717 0.675407 50.7237 1.80118 51.2762L26.5273 63.3965L32.689 100.241C32.8888 101.64 33.991 102.764 35.4261 102.967C36.4573 103.115 37.4821 102.753 38.1911 102.025L57.7117 82.5685L85.5681 102.402C86.4618 103.036 87.6134 103.175 88.6274 102.775C89.6436 102.374 90.387 101.486 90.6018 100.417L109.938 3.83994C110.129 2.88273 109.882 1.857 109.181 1.07325ZM29.0797 57.4884L10.8718 48.5631L82.8052 17.1766L29.0797 57.4884ZM39.1643 67.0369L36.1673 81.9732L32.9339 62.6363L72.4584 32.9801L40.0431 65.3987C39.5876 65.8527 39.2847 66.4437 39.1643 67.0369ZM41.1259 90.0141L44.5075 73.1677L52.3943 78.7825L41.1259 90.0141ZM85.2566 94.284L47.2875 67.2532L101.529 13.0094L85.2566 94.284Z" fill="url(#paint0_linear)"/>
<defs>
<linearGradient id="paint0_linear" x1="110.447" y1="-0.266002" x2="2.88279" y2="105.296" gradientUnits="userSpaceOnUse">
<stop stop-color="#FFCB35"/>
<stop offset="0.0001" stop-color="#FFCB35"/>
<stop offset="0.557292" stop-color="#FF7949"/>
<stop offset="1" stop-color="#FF0066"/>
</linearGradient>
</defs>
</svg>
