<svg width="141" height="33" viewBox="0 0 141 33" fill="none" xmlns="http://www.w3.org/2000/svg">
<g clip-path="url(#clip0)">
<path fill-rule="evenodd" clip-rule="evenodd" d="M65.669 25.9702C64.7153 26.944 63.4967 27.6084 62.1684 27.8786C60.8401 28.1488 59.4623 28.0127 58.2108 27.4875C56.9593 26.9624 55.8907 26.072 55.1412 24.93C54.3918 23.7879 53.9955 22.4459 54.0028 21.075C53.9822 20.1548 54.1435 19.2397 54.4772 18.3834C54.811 17.5271 55.3106 16.747 55.9465 16.0887C56.5824 15.4305 57.3419 14.9075 58.1804 14.5505C59.0189 14.1934 59.9195 14.0095 60.8292 14.0095C61.7389 14.0095 62.6395 14.1934 63.4779 14.5505C64.3164 14.9075 65.0759 15.4305 65.7119 16.0887C66.3478 16.747 66.8473 17.5271 67.1811 18.3834C67.5149 19.2397 67.6762 20.1548 67.6556 21.075C67.6709 21.9848 67.5027 22.8882 67.1611 23.7299C66.8195 24.5716 66.3118 25.3339 65.669 25.9702ZM57.1954 24.7607C58.1637 25.7187 59.4643 26.2551 60.8186 26.2551C62.173 26.2551 63.4735 25.7187 64.4419 24.7607C64.9197 24.2786 65.2957 23.7033 65.5471 23.0697C65.7985 22.4362 65.9201 21.7576 65.9046 21.075C65.9216 20.3891 65.8007 19.7069 65.5493 19.0696C65.2978 18.4324 64.9211 17.8535 64.4419 17.368C63.4735 16.41 62.173 15.8736 60.8186 15.8736C59.4643 15.8736 58.1637 16.41 57.1954 17.368C56.7168 17.8538 56.3407 18.4328 56.0899 19.0701C55.8391 19.7073 55.7187 20.3894 55.7362 21.075C55.72 21.7573 55.8409 22.4359 56.0918 23.0694C56.3426 23.703 56.7181 24.2784 57.1954 24.7607ZM73.8684 27.9909C73.2303 28.0119 72.5948 27.8992 72.0018 27.6598C71.4089 27.4205 70.8712 27.0596 70.4227 26.5999C69.9694 26.1263 69.6154 25.5647 69.3822 24.949C69.1489 24.3334 69.0412 23.6763 69.0655 23.0175C69.0655 21.3905 69.2999 20.1394 69.7687 19.2642C70.2398 18.3891 71.2032 17.5922 72.6589 16.8842C72.9226 16.7561 73.2847 16.5889 73.7418 16.3861C74.1989 16.1834 74.5364 16.0304 74.7509 15.9201C74.995 15.7909 75.23 15.6447 75.4541 15.4825C75.6929 15.3235 75.8954 15.1149 76.0483 14.8706C76.1859 14.6321 76.2845 14.3726 76.3402 14.1022L77.6587 14.8635C77.6238 15.0548 77.5733 15.2428 77.5075 15.4256C77.4402 15.603 77.3478 15.7696 77.2332 15.9201L76.9238 16.3292C76.7954 16.4705 76.646 16.5906 76.4808 16.685C76.2734 16.8166 76.1292 16.9162 76.0308 16.9803C75.8531 17.0849 75.67 17.1799 75.4823 17.2649L74.9373 17.521C74.8435 17.5684 74.6325 17.6574 74.3044 17.7878C73.9809 17.923 73.7805 18.0084 73.7031 18.0475C73.0211 18.3232 72.3917 18.7168 71.8432 19.2109C71.4416 19.6025 71.1473 20.0928 70.9888 20.6339C71.3822 20.1299 71.9018 19.7418 72.4936 19.5097C73.0682 19.2758 73.6816 19.1551 74.3009 19.1539C74.8661 19.1444 75.4274 19.2513 75.9505 19.4681C76.4737 19.6849 76.9478 20.0071 77.3441 20.415C77.7403 20.823 78.0505 21.3082 78.2557 21.8412C78.4609 22.3742 78.5568 22.9438 78.5377 23.5155C78.5531 24.1131 78.4437 24.7072 78.2165 25.2589C77.9892 25.8107 77.6494 26.3077 77.2192 26.7173C76.7702 27.1407 76.2432 27.4705 75.6683 27.6878C75.0934 27.9051 74.4817 28.0057 73.8684 27.9838V27.9909ZM71.6638 25.5504C72.2612 26.1125 73.0531 26.414 73.8684 26.39C74.6721 26.4181 75.4542 26.124 76.0448 25.5718C76.323 25.309 76.5429 24.9896 76.6902 24.6345C76.8375 24.2795 76.9087 23.8969 76.8992 23.512C76.9134 23.1259 76.8479 22.7412 76.7068 22.3822C76.5657 22.0233 76.3523 21.698 76.08 21.4272C75.7915 21.1557 75.4521 20.9456 75.0818 20.8094C74.7116 20.6731 74.3181 20.6134 73.9246 20.6339C73.1331 20.6309 72.3647 20.9035 71.7482 21.4059C71.4395 21.6419 71.1908 21.949 71.0226 22.3016C70.8545 22.6542 70.7718 23.0423 70.7813 23.4337C70.7698 23.8325 70.8426 24.2293 70.9948 24.5974C71.147 24.9655 71.3751 25.2965 71.6638 25.5682V25.5504ZM86.4663 18.2147H88.2244L84.3848 28.3431C84.0617 29.3116 83.4742 30.1676 82.6901 30.8121C81.9849 31.3709 81.0968 31.639 80.2043 31.5627V30.0223C81.3599 30.1124 82.2073 29.4768 82.7464 28.1154L82.8976 27.7597L78.8014 18.2254H80.5348L83.7555 25.6963L86.4663 18.2254V18.2147ZM95.5236 18.2147H97.1621V27.749H95.5236V24.3231C94.719 24.6634 93.8535 24.8317 92.9816 24.8176C91.7744 24.8176 90.8426 24.5294 90.1863 23.9531C89.53 23.3768 89.1995 22.5218 89.1948 21.3881V18.2254H90.8333V21.2956C90.8333 22.0071 91.0266 22.5123 91.4099 22.8182C91.9048 23.1575 92.4977 23.3191 93.0941 23.2772C93.9298 23.2884 94.7582 23.1186 95.5236 22.7791V18.2254V18.2147ZM100.798 23.7432C100.922 24.5333 101.34 25.2458 101.965 25.7354C102.615 26.2217 103.407 26.4723 104.215 26.4469C105.456 26.4469 106.36 25.9809 106.926 25.0559L108.333 25.8564C107.418 27.2794 106.038 27.9909 104.191 27.9909C103.52 28.0177 102.85 27.9052 102.224 27.6605C101.598 27.4158 101.027 27.044 100.548 26.5679C100.084 26.0978 99.7194 25.5365 99.4775 24.9185C99.2357 24.3006 99.1214 23.6391 99.1417 22.9748C99.1221 22.3149 99.2337 21.6578 99.4699 21.0424C99.706 20.427 100.062 19.8659 100.516 19.3923C100.98 18.9184 101.535 18.5472 102.148 18.3023C102.76 18.0573 103.416 17.9439 104.075 17.9693C104.711 17.9487 105.343 18.0704 105.927 18.3256C106.511 18.5808 107.032 18.9633 107.454 19.4457C108.325 20.4178 108.794 21.6912 108.765 23.0032C108.763 23.2521 108.744 23.5005 108.709 23.7468L100.798 23.7432ZM104.054 19.531C103.266 19.4908 102.493 19.7534 101.889 20.2661C101.285 20.7788 100.895 21.5037 100.798 22.2953H107.084C107.003 21.4984 106.626 20.7623 106.03 20.2354C105.476 19.7665 104.775 19.514 104.054 19.5239V19.531ZM117.14 18.2147H118.779V27.749H117.14V23.7717H112.263V27.749H110.625V18.2254H112.263V22.1885H117.14V18.2254V18.2147ZM128.1 18.2147H129.418V27.749H127.797V21.0643L122.583 27.749H121.265V18.2254H122.885V24.903L128.1 18.2147ZM133.054 23.7432C133.178 24.5279 133.591 25.2358 134.211 25.7248C134.861 26.2105 135.653 26.4611 136.461 26.4363C137.706 26.4363 138.609 25.9702 139.172 25.0453L140.578 25.8457C139.659 27.2687 138.277 27.9803 136.433 27.9803C135.762 28.007 135.092 27.8946 134.466 27.6498C133.84 27.4051 133.269 27.0333 132.79 26.5572C132.326 26.0871 131.961 25.5258 131.72 24.9079C131.478 24.2899 131.363 23.6284 131.384 22.9641C131.364 22.3042 131.476 21.6471 131.712 21.0318C131.948 20.4164 132.304 19.8552 132.758 19.3816C133.222 18.9081 133.777 18.5372 134.39 18.2922C135.002 18.0473 135.659 17.9336 136.317 17.9586C136.953 17.9383 137.586 18.06 138.171 18.3152C138.755 18.5704 139.277 18.9527 139.699 19.435C140.568 20.4084 141.036 21.6812 141.007 22.9925C141.005 23.2414 140.986 23.4898 140.951 23.7361L133.054 23.7432ZM136.31 19.531C135.522 19.4908 134.749 19.7534 134.145 20.2661C133.541 20.7788 133.151 21.5037 133.054 22.2953H139.34C139.258 21.4987 138.881 20.763 138.286 20.2354C137.729 19.7743 137.029 19.5284 136.31 19.5417V19.531Z" fill="#080200"/>
<path fill-rule="evenodd" clip-rule="evenodd" d="M2.73899 9.4418H48.5846V30.2393C48.5846 30.9743 48.296 31.6793 47.7823 32.199C47.2687 32.7187 46.572 33.0107 45.8456 33.0107H2.73899C2.01257 33.0107 1.31589 32.7187 0.802232 32.199C0.288571 31.6793 0 30.9743 0 30.2393L0 12.2131C0 11.4781 0.288571 10.7732 0.802232 10.2535C1.31589 9.73378 2.01257 9.4418 2.73899 9.4418Z" fill="#00963F"/>
<path fill-rule="evenodd" clip-rule="evenodd" d="M54.2805 6.93014C55.2017 5.69211 55.6448 3.55757 54.9275 0C45.8772 1.42303 47.8181 6.3716 48.683 7.91915C50.016 5.82798 51.588 3.9031 53.3664 2.18435C52.1608 3.94671 51.118 5.81758 50.2512 7.77329C51.4712 6.35026 52.9023 6.27555 54.2805 6.93014ZM57.1285 9.83312C53.1624 14.3583 51.0352 11.8538 50.2441 10.4948C51.476 10.0803 52.7728 9.89937 54.0696 9.96119C52.7606 9.5522 51.391 9.37763 50.0226 9.44534C50.5043 8.2749 52.4874 4.8205 57.1285 9.83312Z" fill="#85BC22"/>
<path fill-rule="evenodd" clip-rule="evenodd" d="M27.6923 14.6145H28.8842V15.8205H27.6923V14.6145ZM10.622 22.1707L13.5825 14.6145H15.5514L11.0017 25.4615C10.3336 27.0517 9.45815 27.7561 7.83726 27.8202C6.99657 27.8331 6.16118 27.6834 5.37604 27.379V25.8599C6.91254 26.3153 7.11296 26.3687 7.66146 26.358C8.41038 26.358 9.04326 25.9524 9.77108 24.2519L5.38659 14.6145H7.28876L10.622 22.1707ZM23.5293 27.8202H21.8873V24.3088C21.1656 24.5012 20.4222 24.5981 19.6757 24.597C17.3727 24.597 16.005 23.3945 15.9839 21.0181V18.1436H17.6189V21.0857C17.6189 22.5301 18.3221 23.1597 19.6757 23.1597C20.4222 23.1608 21.1656 23.064 21.8873 22.8716V18.1436H23.5293V27.8202ZM30.0691 27.8202C27.0032 27.8202 25.5194 25.7852 25.5194 22.9499C25.5194 20.4596 27.1051 18.1507 29.8582 18.1507C33.2898 18.1507 33.9403 20.6872 33.9403 23.4444H27.0313C27.0296 23.8506 27.1091 24.2529 27.2652 24.6272C27.4212 25.0015 27.6506 25.3399 27.9393 25.6221C28.2281 25.9043 28.5703 26.1245 28.9454 26.2693C29.3205 26.4141 29.7207 26.4806 30.1219 26.4647C30.6266 26.4864 31.1293 26.3886 31.5901 26.1793C32.0509 25.9699 32.4571 25.6547 32.7765 25.2587L33.8313 26.0165C32.9875 27.2189 31.7334 27.8202 30.0691 27.8202ZM29.8582 19.4563C28.2584 19.4563 27.2704 20.7264 27.0875 22.1387H32.4284C32.4284 20.6908 31.4615 19.4563 29.8582 19.4563ZM43.1945 19.4883H39.9879V27.8202H38.3529V19.4883H35.1885V18.1436H43.1769V19.4812L43.1945 19.4883ZM30.5895 14.6251H31.7815V15.8312H30.5895V14.6251Z" fill="white"/>
</g>
<defs>
<clipPath id="clip0">
<rect width="141" height="33" fill="white"/>
</clipPath>
</defs>
</svg>
