<svg width="70" height="71" viewBox="0 0 70 71" fill="none" xmlns="http://www.w3.org/2000/svg">
<g clip-path="url(#clip0)" filter="url(#filter0_d)">
<path d="M66.6998 29.25H40.3002V3.2498C40.3002 1.45619 38.8216 0 36.9998 0C35.1786 0 33.7 1.45619 33.7 3.2498V29.25H7.2998C5.4786 29.25 4 30.7062 4 32.4998C4 34.294 5.4786 35.7502 7.2998 35.7502H33.7V61.7498C33.7 63.544 35.1786 65.0002 36.9998 65.0002C38.8216 65.0002 40.3002 63.544 40.3002 61.7498V35.7502H66.6998C68.5216 35.7502 70.0002 34.294 70.0002 32.4998C70.0002 30.7062 68.5216 29.25 66.6998 29.25Z" fill="url(#paint0_linear)"/>
</g>
<defs>
<filter id="filter0_d" x="0" y="0" width="70" height="71" filterUnits="userSpaceOnUse" color-interpolation-filters="sRGB">
<feFlood flood-opacity="0" result="BackgroundImageFix"/>
<feColorMatrix in="SourceAlpha" type="matrix" values="0 0 0 0 0 0 0 0 0 0 0 0 0 0 0 0 0 0 127 0"/>
<feOffset dx="-2" dy="4"/>
<feGaussianBlur stdDeviation="1"/>
<feColorMatrix type="matrix" values="0 0 0 0 0 0 0 0 0 0 0 0 0 0 0 0 0 0 0.1 0"/>
<feBlend mode="normal" in2="BackgroundImageFix" result="effect1_dropShadow"/>
<feBlend mode="normal" in="SourceGraphic" in2="effect1_dropShadow" result="shape"/>
</filter>
<linearGradient id="paint0_linear" x1="70.2684" y1="-0.167866" x2="2.53848" y2="63.0288" gradientUnits="userSpaceOnUse">
<stop stop-color="#FFCB35"/>
<stop offset="0.0001" stop-color="#FFCB35"/>
<stop offset="0.557292" stop-color="#FF7949"/>
<stop offset="1" stop-color="#FF0066"/>
</linearGradient>
<clipPath id="clip0">
<rect width="66" height="65" fill="white" transform="translate(4)"/>
</clipPath>
</defs>
</svg>
