<?xml version="1.0" encoding="UTF-8"?>
<!DOCTYPE svg PUBLIC "-//W3C//DTD SVG 1.1//EN" "http://www.w3.org/Graphics/SVG/1.1/DTD/svg11.dtd">
<!-- Creator: CorelDRAW 2019 (64-Bit) -->
<svg xmlns="http://www.w3.org/2000/svg" xml:space="preserve" width="94.104mm" height="32.7238mm" version="1.1" style="shape-rendering:geometricPrecision; text-rendering:geometricPrecision; image-rendering:optimizeQuality; fill-rule:evenodd; clip-rule:evenodd"
viewBox="0 0 9410.4 3272.38"
 xmlns:xlink="http://www.w3.org/1999/xlink"
 xmlns:xodm="http://www.corel.com/coreldraw/odm/2003">
 <defs>
  <style type="text/css">
   <![CDATA[
    .fil2 {fill:#88BD2F}
    .fil1 {fill:#00A0E3}
    .fil0 {fill:#FEFEFE;fill-rule:nonzero}
   ]]>
  </style>
 </defs>
 <g id="Слой_x0020_1">
  <metadata id="CorelCorpID_0Corel-Layer"/>
  <path class="fil0" d="M5979.35 1404.98c199.01,0 362.76,65.82 491.23,197.44 128.48,131.63 192.72,294.42 192.72,488.4 0,192.71 -64.24,355.2 -192.72,487.45 -128.47,132.25 -292.22,198.38 -491.23,198.38 -122.18,0 -234.28,-29.28 -336.3,-87.85 -102.03,-58.57 -180.12,-136.98 -234.28,-235.23l153.04 -86.91c36.52,71.8 92.57,129.42 168.15,172.88 75.57,43.45 158.7,65.18 249.39,65.18 137.3,0 251.29,-40.31 341.97,-120.92 90.69,-80.61 144.85,-184.52 162.49,-311.74l-680.17 0 0 -164.37 680.17 0c-17.64,-127.22 -71.8,-231.13 -162.49,-311.75 -90.68,-80.61 -204.67,-120.92 -341.97,-120.92 -90.69,0 -173.5,21.73 -248.45,65.19 -74.94,43.45 -131.31,101.71 -169.09,174.76l-153.04 -88.8c55.42,-98.24 134.14,-176.34 236.17,-234.28 102.02,-57.94 213.49,-86.91 334.41,-86.91zm1808.11 1180.85l141.7 0 0 419.43 -175.71 0 0 -253.17 -872.88 0 0 253.17 -175.71 0 0 -419.43 115.25 0c81.87,-102.03 122.81,-256.95 122.81,-464.78l0 -691.51 844.54 0 0 1156.29zm-768.97 0l593.26 0 0 -991.91 -493.12 0 0 530.91c0,200.27 -33.38,353.93 -100.14,461zm2192.6 -9.45c-132.89,133.51 -295.06,200.27 -486.51,200.27 -191.45,0 -353.31,-66.76 -485.56,-200.27 -132.26,-133.51 -198.38,-295.37 -198.38,-485.56 0,-191.46 66.12,-353.63 198.38,-486.51 132.25,-132.88 294.11,-199.33 485.56,-199.33 191.45,0 353.62,66.45 486.51,199.33 132.88,132.88 199.32,295.05 199.32,486.51 0,190.19 -66.44,352.05 -199.32,485.56zm-850.21 -119.97c97.62,98.87 218.85,148.31 363.7,148.31 144.85,0 266.08,-49.44 363.7,-148.31 97.62,-98.88 146.42,-220.74 146.42,-365.59 0,-146.11 -48.8,-268.61 -146.42,-367.48 -97.62,-98.88 -218.85,-148.32 -363.7,-148.32 -144.85,0 -266.08,49.44 -363.7,148.32 -97.62,98.87 -146.42,221.37 -146.42,367.48 0,144.85 48.8,266.71 146.42,365.59z"/>
  <path class="fil1" d="M274.83 936.14c1533.26,0 3066.52,0 4599.78,0 0,687.13 0,1374.26 0,2061.39 0,151.8 -123.05,274.86 -274.85,274.86l-4324.93 0c-151.79,0 -274.85,-123.06 -274.85,-274.86l0 -1786.54c0,-151.8 123.06,-274.85 274.85,-274.85z"/>
  <path class="fil2" d="M5446.02 687.34c91.02,-121.99 137.14,-334.85 64.97,-687.35 -907.89,140.38 -712.69,631.98 -626.32,785.22 108.31,-177.14 326.6,-440.05 469.86,-568.45 -94.07,136.84 -234.54,366.08 -312.64,553.91 122.48,-140.26 266.04,-148.3 404.13,-83.33zm285.86 287.75c-465.73,-496.94 -664.63,-154.49 -712.9,-37.76 137.33,-6.6 274.75,10.73 406.15,51.24 -130.09,-6.52 -260.26,11.11 -383.94,51.96 79.3,134.92 292.87,383.23 690.69,-65.44z"/>
  <path class="fil0" d="M2778.45 1449.27l119.48 0 0 119.48 -119.48 0 0 -119.48zm-1712.73 749.11l296.91 -749.11 197.64 0 -456.41 1075.39c-66.94,157.71 -154.93,227.58 -316.75,234.22 -74.78,3.07 -158.67,-12.67 -246.52,-43.81l0 -150.79c154.18,45.37 174.15,50.49 229.32,49.47 74.89,-1.4 138.38,-40.18 210.46,-208.95l-439.78 -955.53 190.68 0 334.45 749.11zm1295.1 560.24l-164.66 0 0 -348.06c-72.34,19.06 -146.18,28.44 -221.86,28.44 -231.19,0 -368.57,-119 -370.45,-354.73l0 -286.32 164.04 0 0 291.77c0,143.19 71.73,205.71 206.41,205.71 75.68,0 149.52,-9.38 221.86,-28.44l0 -467.22 164.66 0 0 958.85zm656.02 0c-307.58,0 -456.55,-201.79 -456.55,-482.92 0,-245.27 159.15,-475.93 435.5,-475.93 344.3,0 409.72,251.61 409.72,524.91l-693.29 0c4.67,168.55 126.15,299.52 309.87,299.52 110.99,0 197.16,-36.88 266.55,-119.29l104 75.23c-83.59,118.99 -208.96,178.48 -375.8,178.48zm-21.05 -829.37c-160.57,0 -259.59,126.1 -277.9,265.95l535.69 0c0,-143.29 -97.02,-265.95 -257.79,-265.95zm1338.22 3.09l-322.04 0 0 826.28 -164.04 0 0 -826.28 -315.68 0 0 -132.57 801.76 0 0 132.57zm-1266.13 -482.03l119.47 0 0 119.47 -119.47 0 0 -119.47z"/>
 </g>
</svg>
