<svg width="24" height="24" viewBox="0 0 24 24" fill="none" xmlns="http://www.w3.org/2000/svg">
<path fill-rule="evenodd" clip-rule="evenodd" d="M9 10.5C10.3807 10.5 11.5 9.38071 11.5 8C11.5 6.61929 10.3807 5.5 9 5.5C7.61929 5.5 6.5 6.61929 6.5 8C6.5 9.38071 7.61929 10.5 9 10.5ZM9 12C11.2091 12 13 10.2091 13 8C13 5.79086 11.2091 4 9 4C6.79086 4 5 5.79086 5 8C5 10.2091 6.79086 12 9 12Z" fill="white"/>
<path fill-rule="evenodd" clip-rule="evenodd" d="M10 12.5H8C6.067 12.5 4.5 14.067 4.5 16V17.5H13.5V16C13.5 14.067 11.933 12.5 10 12.5ZM8 11C5.23858 11 3 13.2386 3 16V18C3 18.5523 3.44772 19 4 19H14C14.5523 19 15 18.5523 15 18V16C15 13.2386 12.7614 11 10 11H8Z" fill="white"/>
<path d="M18.5741 13.5H17.5C17.3519 13.5 17.2778 13.4185 17.2778 13.2555V11.2429H15.2593C15.0864 11.2429 15 11.1614 15 10.9984V10.0392C15 9.87618 15.0864 9.79467 15.2593 9.79467H17.2778V7.72571C17.2778 7.57523 17.3519 7.5 17.5 7.5H18.5741C18.7222 7.5 18.7963 7.57523 18.7963 7.72571V9.79467H20.7593C20.9198 9.79467 21 9.87618 21 10.0392V10.9984C21 11.1614 20.9198 11.2429 20.7593 11.2429H18.7963V13.2555C18.7963 13.4185 18.7222 13.5 18.5741 13.5Z" fill="white"/>
</svg>
