<svg width="329" height="315" viewBox="0 0 329 315" fill="none" xmlns="http://www.w3.org/2000/svg"><path d="M121.85 294.988c-18.343-6.459-32.736-28.704-42.829-46.569-9.926-17.96-15.22-31.731-23.197-44.396-7.88-12.499-18.54-24.059-18.9-35.806-.362-11.748 9.312-23.755 15.14-39.74 5.992-16.081 8.305-36.236 18.594-43.726 10.455-7.587 28.886-2.507 43.237 4.707 14.28 7.476 24.146 17.278 50.848 15.59 26.606-1.855 69.786-15.271 90.065-6.61 20.541 8.733 18.347 39.448 5.035 62.412-13.05 23.033-37.289 38.577-51.688 57.74-14.399 19.163-18.959 41.944-32.516 57.964-13.391 15.924-35.351 25.059-53.789 18.434z" fill="url(#b)" filter="url(#a)"/><defs><filter id="a" x="0" y="0" width="328.041" height="324.521" filterUnits="userSpaceOnUse" color-interpolation-filters="sRGB"><feFlood flood-opacity="0" result="BackgroundImageFix"/><feColorMatrix in="SourceAlpha" values="0 0 0 0 0 0 0 0 0 0 0 0 0 0 0 0 0 0 127 0"/><feOffset dx="-2" dy="2"/><feGaussianBlur stdDeviation="2"/><feColorMatrix values="0 0 0 0 0 0 0 0 0 0 0 0 0 0 0 0 0 0 0.1 0"/><feBlend in2="BackgroundImageFix" result="effect1_dropShadow"/><feColorMatrix in="SourceAlpha" values="0 0 0 0 0 0 0 0 0 0 0 0 0 0 0 0 0 0 127 0"/><feOffset dx="2" dy="2"/><feGaussianBlur stdDeviation="4"/><feColorMatrix values="0 0 0 0 0.5125 0 0 0 0 0.207628 0 0 0 0 0.0790104 0 0 0 0.15 0"/><feBlend in2="effect1_dropShadow" result="effect2_dropShadow"/><feBlend in="SourceGraphic" in2="effect2_dropShadow" result="shape"/></filter><linearGradient id="b" x1="217.604" y1="256.534" x2="106.437" y2="63.987" gradientUnits="userSpaceOnUse"><stop stop-color="#FFCB35"/><stop offset="1" stop-color="#F06"/></linearGradient></defs></svg>