<svg width="852" height="764" viewBox="0 0 852 764" fill="none" xmlns="http://www.w3.org/2000/svg"><path d="M299.573 288.553c3.714-39.1-27.683-88.866-22.387-117.553 4.772-28.52 46.594-36.649 78.024-12.172 32.119 24.832 54.202 81.582 108.315 64.949 54.279-16.112 140.753-105.085 212.98-124.606 72.226-19.521 129.681 30.577 105.436 83.1-24.245 52.523-130.19 107.471-169.571 161.36-39.548 53.368-12.699 105.155-7.558 179.357 4.784 74.891-11.617 172.03-54.757 186.898-43.664 15.034-113.901-51.682-200.081-63.344-86.703-11.496-189.35 32.062-214.198-2.552-24.159-34.257 30.004-146.853 76.237-217.284 45.709-70.264 84.369-99.22 87.56-138.153z" fill="url(#b)" filter="url(#a)"/><defs><filter id="a" x="0" y="0" width="937.579" height="833.866" filterUnits="userSpaceOnUse" color-interpolation-filters="sRGB"><feFlood flood-opacity="0" result="BackgroundImageFix"/><feColorMatrix in="SourceAlpha" values="0 0 0 0 0 0 0 0 0 0 0 0 0 0 0 0 0 0 127 0"/><feOffset dx="-2" dy="2"/><feGaussianBlur stdDeviation="2"/><feColorMatrix values="0 0 0 0 0 0 0 0 0 0 0 0 0 0 0 0 0 0 0.1 0"/><feBlend in2="BackgroundImageFix" result="effect1_dropShadow"/><feColorMatrix in="SourceAlpha" values="0 0 0 0 0 0 0 0 0 0 0 0 0 0 0 0 0 0 127 0"/><feOffset dx="2" dy="2"/><feGaussianBlur stdDeviation="4"/><feColorMatrix values="0 0 0 0 0.5125 0 0 0 0 0.207628 0 0 0 0 0.0790104 0 0 0 0.15 0"/><feBlend in2="effect1_dropShadow" result="effect2_dropShadow"/><feBlend in="SourceGraphic" in2="effect2_dropShadow" result="shape"/></filter><linearGradient id="b" x1="98.832" y1="531.944" x2="834.747" y2="297.922" gradientUnits="userSpaceOnUse"><stop stop-color="#FFCB35"/><stop offset="1" stop-color="#F06"/></linearGradient></defs></svg>