<svg width="661" height="308" viewBox="0 0 661 308" fill="none" xmlns="http://www.w3.org/2000/svg"><g clip-path="url(#a)"><path d="M523.821 83.194a5.498 5.498 0 0 0-2.825 4.813c0 .902.22 1.82.692 2.666 1.475 2.653 4.815 3.612 7.463 2.134l98.823-54.999a5.498 5.498 0 0 0 2.134-7.479c-1.475-2.653-4.815-3.612-7.463-2.134l-98.824 54.999z" fill="url(#b)"/><path d="M470.334 121.145a5.499 5.499 0 0 0-4.096 6.605 5.487 5.487 0 0 0 6.595 4.106l164.706-38.5c2.949-.691 4.783-3.658 4.097-6.605a5.488 5.488 0 0 0-6.596-4.106l-164.706 38.5z" fill="url(#c)"/><path d="M540.211 134.745a5.489 5.489 0 0 0 5.832 5.494l87.844-5.499c3.03-.191 5.222-2.761 5.136-5.832a5.49 5.49 0 0 0-5.823-5.146l-87.843 5.5a5.491 5.491 0 0 0-5.146 5.483z" fill="url(#d)"/><path d="M477.111 147.857a5.495 5.495 0 0 0 4.809 6.105l93.334 11a5.492 5.492 0 0 0 6.096-4.821c.38-3-1.796-5.746-4.809-6.104l-93.334-11.001a5.495 5.495 0 0 0-6.096 4.821z" fill="url(#e)"/><path d="M529.435 198.858l-60.392-38.499a5.49 5.49 0 0 0-8.439 4.634c0 1.818.901 3.596 2.542 4.646l60.391 38.499a5.49 5.49 0 0 0 7.582-1.686c1.618-2.562.867-5.961-1.684-7.594z" fill="url(#f)"/><path d="M616.124 264.341a5.513 5.513 0 0 0-1.453-7.643l-68.628-46.749a5.487 5.487 0 0 0-7.628 1.455 5.508 5.508 0 0 0 1.452 7.644l68.627 46.749a5.489 5.489 0 0 0 7.63-1.456z" fill="url(#g)"/><path d="M521.397 173.936a5.51 5.51 0 0 0 3.03 7.163l129.02 52.248a5.488 5.488 0 0 0 7.148-3.037c1.148-2.823-.226-6.021-3.03-7.163l-129.02-52.248a5.487 5.487 0 0 0-7.148 3.037z" fill="url(#h)"/><path d="M538.281 257.06l-74.118-63.249a5.488 5.488 0 0 0-9.05 4.184 5.48 5.48 0 0 0 1.931 4.189l74.118 63.249a5.488 5.488 0 0 0 7.742-.62c1.967-2.307 1.688-5.781-.623-7.753z" fill="url(#i)"/><path d="M475.975 255.197l-32.942-43.999a5.48 5.48 0 0 0-7.683-1.098 5.483 5.483 0 0 0-2.199 4.404c0 1.147.359 2.305 1.099 3.296l32.941 43.999a5.481 5.481 0 0 0 7.684 1.098c2.429-1.818 2.917-5.261 1.1-7.7z" fill="url(#j)"/><path d="M505.152 304.09c2.391-1.869 2.831-5.33.96-7.718l-19.216-24.75a5.485 5.485 0 0 0-7.705-.967 5.507 5.507 0 0 0-.96 7.718l19.216 24.75a5.486 5.486 0 0 0 7.705.967z" fill="url(#k)"/><path d="M519.944 57.266a5.481 5.481 0 0 0-7.668-1.212l-60.391 43.999a5.488 5.488 0 0 0-2.263 4.452 5.5 5.5 0 0 0 1.05 3.232 5.481 5.481 0 0 0 7.668 1.211l60.392-43.999a5.503 5.503 0 0 0 1.212-7.683z" fill="url(#l)"/><path d="M528.378 39.844a5.497 5.497 0 0 0-1.892 4.16c0 1.276.44 2.56 1.34 3.599a5.487 5.487 0 0 0 7.747.555L576.75 12.41c2.279-1.987 2.542-5.462.552-7.758a5.487 5.487 0 0 0-7.747-.556l-41.177 35.75z" fill="url(#m)"/><path d="M448.159 86.237l68.627-74.25a5.501 5.501 0 0 0-.295-7.771 5.483 5.483 0 0 0-7.758.3l-68.627 74.25a5.472 5.472 0 0 0-1.464 3.734 5.488 5.488 0 0 0 9.517 3.737z" fill="url(#n)"/><path d="M432.787 67.975l13.725-35.749c1.078-2.83-.321-6.012-3.152-7.109a5.492 5.492 0 0 0-7.099 3.16l-13.726 35.75a5.565 5.565 0 0 0-.364 1.974 5.502 5.502 0 0 0 3.518 5.134 5.49 5.49 0 0 0 7.098-3.16z" fill="url(#o)"/></g><g clip-path="url(#p)"><path d="M137.752 83.194a5.493 5.493 0 0 1 2.143 7.479 5.518 5.518 0 0 1-7.495 2.134L33.164 37.808a5.486 5.486 0 0 1-2.143-7.479 5.518 5.518 0 0 1 7.495-2.134l99.236 54.999z" fill="url(#q)"/><path d="M191.464 121.145a5.503 5.503 0 0 1 4.259 5.35c0 .414-.048.835-.146 1.254-.69 2.96-3.655 4.797-6.623 4.107l-165.395-38.5c-2.96-.691-4.803-3.658-4.114-6.605.69-2.96 3.656-4.797 6.623-4.106l165.396 38.5z" fill="url(#r)"/><path d="M121.294 134.745c0 .115-.005.231-.01.349a5.504 5.504 0 0 1-5.846 5.145l-88.212-5.499c-3.042-.191-5.243-2.761-5.157-5.832a5.505 5.505 0 0 1 5.847-5.146l88.211 5.5a5.5 5.5 0 0 1 5.167 5.483z" fill="url(#s)"/><path d="M184.659 147.857a5.503 5.503 0 0 1-4.83 6.105l-93.724 11a5.51 5.51 0 0 1-6.122-4.821c-.382-3 1.803-5.746 4.83-6.104l93.724-11.001a5.514 5.514 0 0 1 6.122 4.821z" fill="url(#t)"/><path d="M132.115 198.858l60.645-38.499a5.526 5.526 0 0 1 7.613 1.686c.582.916.861 1.938.861 2.948a5.504 5.504 0 0 1-2.552 4.646l-60.644 38.499a5.527 5.527 0 0 1-7.614-1.686 5.51 5.51 0 0 1 1.691-7.594z" fill="url(#u)"/><path d="M45.064 264.341a5.497 5.497 0 0 1 1.46-7.642l68.914-46.75a5.524 5.524 0 0 1 7.66 1.455 5.5 5.5 0 0 1-1.458 7.644l-68.915 46.749a5.526 5.526 0 0 1-7.661-1.456z" fill="url(#v)"/><path d="M140.187 173.936c.274.676.403 1.375.403 2.06a5.512 5.512 0 0 1-3.445 5.103L7.585 233.347a5.518 5.518 0 0 1-7.178-3.037c-1.153-2.823.226-6.021 3.042-7.163l129.561-52.249a5.517 5.517 0 0 1 7.177 3.038z" fill="url(#w)"/><path d="M123.232 257.061l74.429-63.249a5.527 5.527 0 0 1 7.774.62 5.46 5.46 0 0 1 1.314 3.563 5.48 5.48 0 0 1-1.939 4.19l-74.429 63.248a5.527 5.527 0 0 1-7.774-.619 5.489 5.489 0 0 1 .625-7.753z" fill="url(#x)"/><path d="M185.799 255.197l33.08-43.999a5.518 5.518 0 0 1 7.715-1.098 5.475 5.475 0 0 1 2.208 4.404 5.48 5.48 0 0 1-1.103 3.296l-33.079 43.999a5.519 5.519 0 0 1-7.716 1.098 5.488 5.488 0 0 1-1.105-7.7z" fill="url(#y)"/><path d="M156.5 304.09c-2.401-1.869-2.843-5.33-.964-7.718l19.297-24.75a5.523 5.523 0 0 1 7.737-.967 5.497 5.497 0 0 1 .964 7.718l-19.297 24.75a5.523 5.523 0 0 1-7.737.967z" fill="url(#z)"/><path d="M141.646 57.266a5.52 5.52 0 0 1 7.7-1.212l60.644 43.999a5.482 5.482 0 0 1 2.273 4.452c0 1.12-.344 2.254-1.055 3.232a5.519 5.519 0 0 1-7.7 1.211l-60.644-43.999a5.487 5.487 0 0 1-1.218-7.683z" fill="url(#A)"/><path d="M133.177 39.844a5.488 5.488 0 0 1 1.9 4.16c0 1.276-.442 2.56-1.346 3.599a5.526 5.526 0 0 1-7.779.555L84.602 12.41c-2.288-1.988-2.552-5.462-.554-7.759a5.527 5.527 0 0 1 7.78-.555l41.349 35.748z" fill="url(#B)"/><path d="M213.732 86.237l-68.915-74.25a5.485 5.485 0 0 1 .296-7.771 5.523 5.523 0 0 1 7.791.3l68.914 74.25a5.455 5.455 0 0 1 1.47 3.734 5.48 5.48 0 0 1-1.766 4.037 5.523 5.523 0 0 1-7.79-.3z" fill="url(#C)"/><path d="M229.168 67.975l-13.783-35.749a5.51 5.51 0 0 1 3.166-7.109 5.522 5.522 0 0 1 7.129 3.16l13.782 35.75a5.502 5.502 0 0 1-3.166 7.11 5.52 5.52 0 0 1-7.128-3.162z" fill="url(#D)"/></g><defs><linearGradient id="b" x1="630.803" y1="60.501" x2="520.996" y2="60.501" gradientUnits="userSpaceOnUse"><stop stop-color="#FFCB35"/><stop offset="1" stop-color="#F06"/></linearGradient><linearGradient id="c" x1="641.78" y1="107.25" x2="466.092" y2="107.25" gradientUnits="userSpaceOnUse"><stop stop-color="#FFCB35"/><stop offset="1" stop-color="#F06"/></linearGradient><linearGradient id="d" x1="639.026" y1="132.001" x2="540.211" y2="132.001" gradientUnits="userSpaceOnUse"><stop stop-color="#FFCB35"/><stop offset="1" stop-color="#F06"/></linearGradient><linearGradient id="e" x1="581.394" y1="153.999" x2="477.073" y2="153.999" gradientUnits="userSpaceOnUse"><stop stop-color="#FFCB35"/><stop offset="1" stop-color="#F06"/></linearGradient><linearGradient id="f" x1="531.972" y1="184.249" x2="460.604" y2="184.249" gradientUnits="userSpaceOnUse"><stop stop-color="#FFCB35"/><stop offset="1" stop-color="#F06"/></linearGradient><linearGradient id="g" x1="617.073" y1="237.873" x2="537.465" y2="237.873" gradientUnits="userSpaceOnUse"><stop stop-color="#FFCB35"/><stop offset="1" stop-color="#F06"/></linearGradient><linearGradient id="h" x1="661.001" y1="202.123" x2="520.996" y2="202.123" gradientUnits="userSpaceOnUse"><stop stop-color="#FFCB35"/><stop offset="1" stop-color="#F06"/></linearGradient><linearGradient id="i" x1="540.215" y1="229.622" x2="455.113" y2="229.622" gradientUnits="userSpaceOnUse"><stop stop-color="#FFCB35"/><stop offset="1" stop-color="#F06"/></linearGradient><linearGradient id="j" x1="477.073" y1="236.498" x2="433.151" y2="236.498" gradientUnits="userSpaceOnUse"><stop stop-color="#FFCB35"/><stop offset="1" stop-color="#F06"/></linearGradient><linearGradient id="k" x1="507.273" y1="287.372" x2="477.073" y2="287.372" gradientUnits="userSpaceOnUse"><stop stop-color="#FFCB35"/><stop offset="1" stop-color="#F06"/></linearGradient><linearGradient id="l" x1="520.996" y1="82.501" x2="449.622" y2="82.501" gradientUnits="userSpaceOnUse"><stop stop-color="#FFCB35"/><stop offset="1" stop-color="#F06"/></linearGradient><linearGradient id="m" x1="578.641" y1="26.127" x2="526.486" y2="26.127" gradientUnits="userSpaceOnUse"><stop stop-color="#FFCB35"/><stop offset="1" stop-color="#F06"/></linearGradient><linearGradient id="n" x1="518.251" y1="45.376" x2="438.642" y2="45.376" gradientUnits="userSpaceOnUse"><stop stop-color="#FFCB35"/><stop offset="1" stop-color="#F06"/></linearGradient><linearGradient id="o" x1="446.875" y1="48.127" x2="422.171" y2="48.127" gradientUnits="userSpaceOnUse"><stop stop-color="#FFCB35"/><stop offset="1" stop-color="#F06"/></linearGradient><linearGradient id="q" x1="30.324" y1="60.501" x2="140.59" y2="60.501" gradientUnits="userSpaceOnUse"><stop stop-color="#FFCB35"/><stop offset="1" stop-color="#F06"/></linearGradient><linearGradient id="r" x1="19.301" y1="107.25" x2="195.723" y2="107.25" gradientUnits="userSpaceOnUse"><stop stop-color="#FFCB35"/><stop offset="1" stop-color="#F06"/></linearGradient><linearGradient id="s" x1="22.066" y1="132.001" x2="121.294" y2="132.001" gradientUnits="userSpaceOnUse"><stop stop-color="#FFCB35"/><stop offset="1" stop-color="#F06"/></linearGradient><linearGradient id="t" x1="79.939" y1="153.999" x2="184.696" y2="153.999" gradientUnits="userSpaceOnUse"><stop stop-color="#FFCB35"/><stop offset="1" stop-color="#F06"/></linearGradient><linearGradient id="u" x1="129.568" y1="184.249" x2="201.234" y2="184.249" gradientUnits="userSpaceOnUse"><stop stop-color="#FFCB35"/><stop offset="1" stop-color="#F06"/></linearGradient><linearGradient id="v" x1="44.11" y1="237.873" x2="124.052" y2="237.873" gradientUnits="userSpaceOnUse"><stop stop-color="#FFCB35"/><stop offset="1" stop-color="#F06"/></linearGradient><linearGradient id="w" x1="-.001" y1="202.123" x2="140.59" y2="202.123" gradientUnits="userSpaceOnUse"><stop stop-color="#FFCB35"/><stop offset="1" stop-color="#F06"/></linearGradient><linearGradient id="x" x1="121.291" y1="229.623" x2="206.749" y2="229.623" gradientUnits="userSpaceOnUse"><stop stop-color="#FFCB35"/><stop offset="1" stop-color="#F06"/></linearGradient><linearGradient id="y" x1="184.697" y1="236.498" x2="228.802" y2="236.498" gradientUnits="userSpaceOnUse"><stop stop-color="#FFCB35"/><stop offset="1" stop-color="#F06"/></linearGradient><linearGradient id="z" x1="154.37" y1="287.372" x2="184.696" y2="287.372" gradientUnits="userSpaceOnUse"><stop stop-color="#FFCB35"/><stop offset="1" stop-color="#F06"/></linearGradient><linearGradient id="A" x1="140.59" y1="82.501" x2="212.263" y2="82.501" gradientUnits="userSpaceOnUse"><stop stop-color="#FFCB35"/><stop offset="1" stop-color="#F06"/></linearGradient><linearGradient id="B" x1="82.703" y1="26.127" x2="135.077" y2="26.127" gradientUnits="userSpaceOnUse"><stop stop-color="#FFCB35"/><stop offset="1" stop-color="#F06"/></linearGradient><linearGradient id="C" x1="143.346" y1="45.376" x2="223.288" y2="45.376" gradientUnits="userSpaceOnUse"><stop stop-color="#FFCB35"/><stop offset="1" stop-color="#F06"/></linearGradient><linearGradient id="D" x1="215.021" y1="48.127" x2="239.828" y2="48.127" gradientUnits="userSpaceOnUse"><stop stop-color="#FFCB35"/><stop offset="1" stop-color="#F06"/></linearGradient><clipPath id="a"><path fill="#fff" transform="rotate(90 330.5 330.5)" d="M0 0h308v239H0z"/></clipPath><clipPath id="p"><path fill="#fff" transform="matrix(0 1 1 0 0 0)" d="M0 0h308v240H0z"/></clipPath></defs></svg>