<svg width="120" height="120" viewBox="0 0 120 120" fill="none" xmlns="http://www.w3.org/2000/svg"><g clip-path="url(#a)"><path d="M113.492 5.86h-11.944a1.775 1.775 0 0 0 0 3.55h11.944a2.962 2.962 0 0 1 2.958 2.958v67.219a2.963 2.963 0 0 1-2.958 2.959H6.508a2.962 2.962 0 0 1-2.958-2.96V12.369A2.962 2.962 0 0 1 6.508 9.41H93.27a1.775 1.775 0 1 0 0-3.55H6.51A6.516 6.516 0 0 0 0 12.367v67.219c0 3.59 2.92 6.51 6.508 6.51h39.41v5.448c0 4.532-2.468 8.704-6.439 10.889l-2.11 1.16c-.567.312-.92.908-.92 1.555v7.101c0 .981.796 1.775 1.776 1.775h43.437c.98 0 1.775-.794 1.775-1.775v-7.101c0-.647-.352-1.243-.92-1.555l-2.109-1.16a12.427 12.427 0 0 1-6.438-10.889v-5.449h39.522a6.516 6.516 0 0 0 6.508-6.51V12.369a6.516 6.516 0 0 0-6.508-6.509zm-34.795 99.684l1.19.654v4.277H40v-4.277l1.19-.654a15.977 15.977 0 0 0 8.278-13.999v-5.449H70.42v5.45c0 5.826 3.171 11.19 8.277 13.998z" fill="url(#b)"/><path d="M9.823 63.744c-.98 0-1.776.794-1.776 1.775v10.754c0 .981.795 1.776 1.776 1.776h100.354c.981 0 1.776-.795 1.776-1.776v-60.59c0-.982-.795-1.776-1.776-1.776H9.823c-.98 0-1.776.794-1.776 1.775V57.26a1.775 1.775 0 1 0 3.55 0V17.457h96.805v57.041H61.065V67.28c0-7.739-5.53-14.208-12.847-15.666a11.65 11.65 0 0 0 1.722-6.108v-5.208c0-6.46-5.255-11.716-11.715-11.716S26.51 33.837 26.51 40.297v5.208c0 2.236.63 4.328 1.722 6.108-7.316 1.46-12.847 7.928-12.847 15.666v7.22h-3.786v-8.98c0-.98-.795-1.775-1.775-1.775zm20.236-23.447c0-4.503 3.663-8.166 8.166-8.166s8.166 3.663 8.166 8.166v5.208c0 4.502-3.663 8.165-8.166 8.165s-8.166-3.663-8.166-8.166v-5.207zM18.935 67.279c0-6.79 5.477-12.323 12.244-12.42a11.657 11.657 0 0 0 7.046 2.361c2.642 0 5.083-.88 7.045-2.362 6.768.098 12.244 5.63 12.244 12.421v7.22h-38.58v-7.22z" fill="url(#c)"/><path d="M84.616 23.61H65.68c-.98 0-1.775.795-1.775 1.776V44.32c0 .98.794 1.775 1.775 1.775h18.935c.98 0 1.775-.795 1.775-1.775V25.386c0-.98-.795-1.776-1.775-1.776zM82.84 42.545H67.456V27.161h15.385v15.384z" fill="url(#d)"/><path d="M64.142 54.025c0 .98.794 1.775 1.775 1.775h36.214a1.775 1.775 0 0 0 0-3.55H65.917c-.98 0-1.775.795-1.775 1.775z" fill="url(#e)"/><path d="M91.953 46.096h10.177a1.775 1.775 0 0 0 0-3.55H91.953a1.775 1.775 0 1 0 0 3.55z" fill="url(#f)"/><path d="M91.953 36.628h10.177a1.775 1.775 0 0 0 0-3.55H91.953a1.775 1.775 0 1 0 0 3.55z" fill="url(#g)"/><path d="M91.953 27.16h10.177a1.775 1.775 0 0 0 0-3.55H91.953a1.775 1.775 0 1 0 0 3.55z" fill="url(#h)"/><path d="M102.13 61.954H65.917a1.775 1.775 0 1 0 0 3.55h36.214a1.775 1.775 0 0 0-.001-3.55z" fill="url(#i)"/></g><defs><linearGradient id="b" x1="120.488" y1="5.58" x2="7.53" y2="120.737" gradientUnits="userSpaceOnUse"><stop stop-color="#FFCB35"/><stop offset="0" stop-color="#FFCB35"/><stop offset=".557" stop-color="#FF7949"/><stop offset="1" stop-color="#F06"/></linearGradient><linearGradient id="c" x1="112.375" y1="13.741" x2="50.352" y2="106.068" gradientUnits="userSpaceOnUse"><stop stop-color="#FFCB35"/><stop offset="0" stop-color="#FFCB35"/><stop offset=".557" stop-color="#FF7949"/><stop offset="1" stop-color="#F06"/></linearGradient><linearGradient id="d" x1="86.482" y1="23.552" x2="63.08" y2="45.057" gradientUnits="userSpaceOnUse"><stop stop-color="#FFCB35"/><stop offset="0" stop-color="#FFCB35"/><stop offset=".557" stop-color="#FF7949"/><stop offset="1" stop-color="#F06"/></linearGradient><linearGradient id="e" x1="104.067" y1="52.241" x2="103.353" y2="59.587" gradientUnits="userSpaceOnUse"><stop stop-color="#FFCB35"/><stop offset="0" stop-color="#FFCB35"/><stop offset=".557" stop-color="#FF7949"/><stop offset="1" stop-color="#F06"/></linearGradient><linearGradient id="f" x1="103.961" y1="42.536" x2="102.027" y2="49.409" gradientUnits="userSpaceOnUse"><stop stop-color="#FFCB35"/><stop offset="0" stop-color="#FFCB35"/><stop offset=".557" stop-color="#FF7949"/><stop offset="1" stop-color="#F06"/></linearGradient><linearGradient id="g" x1="103.961" y1="33.069" x2="102.027" y2="39.941" gradientUnits="userSpaceOnUse"><stop stop-color="#FFCB35"/><stop offset="0" stop-color="#FFCB35"/><stop offset=".557" stop-color="#FF7949"/><stop offset="1" stop-color="#F06"/></linearGradient><linearGradient id="h" x1="103.961" y1="23.601" x2="102.027" y2="30.474" gradientUnits="userSpaceOnUse"><stop stop-color="#FFCB35"/><stop offset="0" stop-color="#FFCB35"/><stop offset=".557" stop-color="#FF7949"/><stop offset="1" stop-color="#F06"/></linearGradient><linearGradient id="i" x1="104.067" y1="61.945" x2="103.353" y2="69.292" gradientUnits="userSpaceOnUse"><stop stop-color="#FFCB35"/><stop offset="0" stop-color="#FFCB35"/><stop offset=".557" stop-color="#FF7949"/><stop offset="1" stop-color="#F06"/></linearGradient><clipPath id="a"><path fill="#fff" d="M0 0h120v120H0z"/></clipPath></defs></svg>