<svg width="120" height="120" viewBox="0 0 120 120" fill="none" xmlns="http://www.w3.org/2000/svg"><path d="M80.639 30.408a2.343 2.343 0 0 0-2.343 2.343v.141a2.343 2.343 0 1 0 4.685 0v-.141a2.343 2.343 0 0 0-2.342-2.343z" fill="url(#a)"/><path d="M111.145 48.871h-7.674a44.517 44.517 0 0 0-6.33-15.283l5.426-5.426a2.345 2.345 0 0 0 0-3.314l-9.491-9.49a2.343 2.343 0 0 0-.719-.489V8.014C92.357 3.295 89.86 0 86.28 0H74.999c-3.16 0-5.476 2.569-5.975 6.418a2.342 2.342 0 0 0-2.313-1.981H53.29a2.343 2.343 0 0 0-2.343 2.343v7.667a44.512 44.512 0 0 0-15.284 6.335l-5.425-5.424a2.344 2.344 0 0 0-3.313 0l-9.491 9.49a2.345 2.345 0 0 0 0 3.314l5.426 5.425a44.508 44.508 0 0 0-6.333 15.284H8.855a2.343 2.343 0 0 0-2.343 2.343v13.422a2.343 2.343 0 0 0 2.343 2.343h7.675a44.509 44.509 0 0 0 6.336 15.275l-5.433 5.433a2.344 2.344 0 0 0 0 3.313l9.49 9.491a2.343 2.343 0 0 0 3.314 0l5.436-5.436a44.546 44.546 0 0 0 15.273 6.33v7.684a2.343 2.343 0 0 0 2.343 2.343H66.71a2.343 2.343 0 0 0 2.343-2.343v-7.684c.27-.056.538-.12.807-.181l8.68 17.495a2.343 2.343 0 0 0 4.197 0l8.693-17.522a2.345 2.345 0 0 0 1.645-.686l9.491-9.49a2.344 2.344 0 0 0 0-3.314l-5.433-5.433a44.504 44.504 0 0 0 6.333-15.275h7.678a2.343 2.343 0 0 0 2.343-2.343V51.214a2.343 2.343 0 0 0-2.343-2.343zM68.922 31.266A27.906 27.906 0 0 0 60 29.819c-15.492 0-28.096 12.604-28.096 28.097 0 15.492 12.604 28.096 28.096 28.096 3.076 0 6.063-.487 8.922-1.447v12.05c-.856.197-1.718.368-2.581.507a2.342 2.342 0 0 0-1.972 2.313v7.292H55.63v-7.292c0-1.15-.835-2.131-1.972-2.313a39.73 39.73 0 0 1-16.892-7 2.342 2.342 0 0 0-3.029.242l-5.158 5.158-6.178-6.178 5.156-5.155a2.343 2.343 0 0 0 .242-3.03 39.73 39.73 0 0 1-7.008-16.894 2.343 2.343 0 0 0-2.313-1.972h-7.281v-8.736h7.279c1.15 0 2.13-.836 2.313-1.972a39.72 39.72 0 0 1 7.003-16.903 2.343 2.343 0 0 0-.243-3.029l-5.148-5.148 6.178-6.177 5.147 5.146a2.343 2.343 0 0 0 3.03.243A39.732 39.732 0 0 1 53.66 18.71a2.343 2.343 0 0 0 1.972-2.313V9.122h8.737v7.274c0 1.151.835 2.131 1.972 2.314.864.138 1.726.31 2.58.506v12.05zm0 4.999v43.3A23.186 23.186 0 0 1 60 81.326c-12.909 0-23.411-10.502-23.411-23.41 0-12.91 10.502-23.411 23.411-23.411 3.104 0 6.098.591 8.921 1.76zm4.685-28.252c0-1.835.624-3.327 1.392-3.327h11.28c.768 0 1.393 1.492 1.393 3.327v6.519H73.607V8.013zm7.032 104.373l-4.925-9.927c.527-.077 1.065-.2 1.612-.374a10.603 10.603 0 0 0 3.313-1.756c.99.789 2.174 1.394 3.313 1.757a10.06 10.06 0 0 0 1.612.373l-4.925 9.927zm7.033-14.958v.269c-.439.194-.985.187-1.428.125-1.694-.236-3.01-1.29-3.263-1.742V39.612a2.343 2.343 0 1 0-4.685 0V96.08c-.249.448-1.565 1.507-3.263 1.743-.443.061-.988.068-1.426-.125V28.592h14.065v68.836zm0-73.52l-14.065-.001v-4.69h14.065v4.69zm4.685-2.643l5.24 5.24-5.148 5.148c-.032.033-.062.067-.092.1V21.266zm5.24 68.079l-5.24 5.24V84.096c.028.03.055.062.084.091l5.156 5.156zm3.921-27.05c-1.15 0-2.13.834-2.313 1.97a39.734 39.734 0 0 1-6.848 16.67V34.896a39.73 39.73 0 0 1 6.85 16.687 2.343 2.343 0 0 0 2.313 1.972h7.282v8.737h-7.284z" fill="url(#b)"/><path d="M32.423 71.407l-.036-.073a2.333 2.333 0 0 0-3.138-1.038 2.352 2.352 0 0 0-1.043 3.153l.026.053a2.342 2.342 0 1 0 4.191-2.095z" fill="url(#c)"/><path d="M30.424 43.012a2.342 2.342 0 0 0-3.066 1.256 35.173 35.173 0 0 0-2.733 13.657c0 3.348.469 6.664 1.392 9.856a2.344 2.344 0 0 0 2.902 1.6 2.342 2.342 0 0 0 1.6-2.902 30.757 30.757 0 0 1-1.208-8.554c0-4.106.797-8.092 2.37-11.847a2.343 2.343 0 0 0-1.257-3.066z" fill="url(#d)"/><defs><linearGradient id="a" x1="83" y1="30.396" x2="77.992" y2="34.864" gradientUnits="userSpaceOnUse"><stop stop-color="#FFCB35"/><stop offset="0" stop-color="#FFCB35"/><stop offset=".557" stop-color="#FF7949"/><stop offset="1" stop-color="#F06"/></linearGradient><linearGradient id="b" x1="113.923" y1="-.31" x2="-8.965" y2="100.359" gradientUnits="userSpaceOnUse"><stop stop-color="#FFCB35"/><stop offset="0" stop-color="#FFCB35"/><stop offset=".557" stop-color="#FF7949"/><stop offset="1" stop-color="#F06"/></linearGradient><linearGradient id="c" x1="32.69" y1="70.033" x2="27.748" y2="74.538" gradientUnits="userSpaceOnUse"><stop stop-color="#FFCB35"/><stop offset="0" stop-color="#FFCB35"/><stop offset=".557" stop-color="#FF7949"/><stop offset="1" stop-color="#F06"/></linearGradient><linearGradient id="d" x1="31.892" y1="42.76" x2="18.814" y2="46.025" gradientUnits="userSpaceOnUse"><stop stop-color="#FFCB35"/><stop offset="0" stop-color="#FFCB35"/><stop offset=".557" stop-color="#FF7949"/><stop offset="1" stop-color="#F06"/></linearGradient></defs></svg>