<svg width="120" height="120" viewBox="0 0 120 120" fill="none" xmlns="http://www.w3.org/2000/svg"><g clip-path="url(#a)"><path d="M113.752 102.522h-3.089c-2.143-5.092-2.144-10.06-.003-15.127h3.092A6.255 6.255 0 0 0 120 81.146a6.255 6.255 0 0 0-6.248-6.248h-12.431a10.227 10.227 0 0 0 2.544-6.756V48.564c0-5.663-4.607-10.271-10.271-10.271h-5.055a6.314 6.314 0 0 0 .672-2.84c0-3.507-2.85-6.361-6.355-6.361h-1.738c-1.552-3.836-1.553-7.583-.003-11.394h1.742c3.503 0 6.354-2.854 6.354-6.362a6.362 6.362 0 0 0-6.355-6.355H23.56c-10.155 0-18.417 8.259-18.417 18.41 0 4.91 1.919 9.532 5.402 13.015.693.693 1.432 1.32 2.208 1.886H11.39a6.255 6.255 0 0 0-6.248 6.249 6.255 6.255 0 0 0 6.248 6.248h3.092c2.142 5.066 2.14 10.035-.002 15.127h-3.09a6.255 6.255 0 0 0-6.248 6.249c0 1.318.412 2.54 1.11 3.55C2.582 77.282 0 80.93 0 85.17v19.577c0 5.664 4.605 10.272 10.264 10.272h103.488A6.255 6.255 0 0 0 120 108.77a6.255 6.255 0 0 0-6.248-6.248zm0-24.109a2.735 2.735 0 0 1 2.732 2.733 2.735 2.735 0 0 1-2.732 2.733H82.028a1.758 1.758 0 1 0 0 3.516h24.862a22.814 22.814 0 0 0-1.266 5.805s-.702 3.48 1.269 9.322H13.005a.516.516 0 0 1-.508-.509v-14.11c0-.275.233-.508.508-.508H30.42v5.773c-.11 1.728.734 2.41 1.252 2.663.525.257 1.605.505 2.932-.709l.028-.025 4.913-4.686 4.913 4.686a.913.913 0 0 0 .028.026c.777.71 1.469.92 2.015.92.39 0 .706-.107.925-.216.52-.255 1.362-.94 1.243-2.664l.002-5.768h24.702a1.758 1.758 0 1 0 0-3.516h-24.7l.002-5.465h65.077zM19.519 56.596c-.158-1.94-.586-3.877-1.273-5.806H90.86c.276 0 .509.233.509.508v14.11a.516.516 0 0 1-.509.508H48.68l.002-5.805h12.302a1.758 1.758 0 1 0 0-3.516H19.52zm10.896 9.32H18.242c.686-1.932 1.115-3.868 1.275-5.805h10.897l.001 5.806zm14.752-5.805l-.013 30.791-4.396-4.193a1.758 1.758 0 0 0-2.427 0l-4.395 4.193-.007-30.791h11.238zm-36.51-36.72c0-8.212 6.685-14.894 14.902-14.894h59.297a2.842 2.842 0 0 1 0 5.685H50.452a1.758 1.758 0 0 0 0 3.516H77.37c-1.241 3.781-1.24 7.596.004 11.394H23.56a5.68 5.68 0 0 1-4.024-1.67 5.685 5.685 0 0 1-1.677-4.03c0-3.14 2.558-5.694 5.7-5.694h18.24a1.758 1.758 0 0 0 0-3.516h-18.24c-5.08 0-9.215 4.131-9.215 9.21 0 2.447.959 4.759 2.706 6.515a9.178 9.178 0 0 0 6.51 2.7h59.297a2.842 2.842 0 1 1 0 5.685H23.56c-3.97 0-7.71-1.552-10.529-4.372a14.798 14.798 0 0 1-4.372-10.529zm2.733 23.883a2.736 2.736 0 0 1-2.732-2.733 2.736 2.736 0 0 1 2.732-2.732h82.204a6.764 6.764 0 0 1 6.756 6.756v19.577a6.764 6.764 0 0 1-6.756 6.756H48.676l.002-5.465H90.86a4.029 4.029 0 0 0 4.024-4.025v-14.11a4.029 4.029 0 0 0-4.024-4.023H11.39zm0 22.158h19.026l.001 5.466H11.391a2.736 2.736 0 0 1-2.733-2.733 2.735 2.735 0 0 1 2.732-2.733zm102.362 42.071H10.264c-3.72 0-6.748-3.031-6.748-6.756V85.17c0-3.726 3.027-6.757 6.748-6.757h20.154v5.466H13.007a4.029 4.029 0 0 0-4.025 4.024v14.11a4.029 4.029 0 0 0 4.024 4.024h100.747a2.735 2.735 0 0 1 2.732 2.733 2.735 2.735 0 0 1-2.732 2.733z" fill="url(#b)"/></g><defs><linearGradient id="b" x1="120.488" y1="4.697" x2="5.554" y2="119.875" gradientUnits="userSpaceOnUse"><stop stop-color="#FFCB35"/><stop offset="0" stop-color="#FFCB35"/><stop offset=".557" stop-color="#FF7949"/><stop offset="1" stop-color="#F06"/></linearGradient><clipPath id="a"><path fill="#fff" d="M0 0h120v120H0z"/></clipPath></defs></svg>