<svg width="120" height="119" viewBox="0 0 120 119" fill="none" xmlns="http://www.w3.org/2000/svg"><path d="M108.423 31.438H92.77l8.912-7.183c.425-.315.794-.71 1.084-1.172a4.247 4.247 0 0 0 .396-3.744L97.13 2.842C96.32.63 93.924-.519 91.673.227l-3.546 1.176a1.737 1.737 0 0 0-1.109 2.202 1.759 1.759 0 0 0 2.222 1.1l3.546-1.176a.828.828 0 0 1 1.043.5l6.033 16.497c.168.62-.155.996-.69 1.1l-9.874 1.067a20.86 20.86 0 0 0-9.36 3.411l-6.549 4.402-1.118-.208V25.31c0-1.859-.424-3.62-1.178-5.198l3.109-5.631a16.997 16.997 0 0 1 7.773-7.24 1.735 1.735 0 0 0 .845-2.316 1.762 1.762 0 0 0-2.334-.838 20.474 20.474 0 0 0-9.364 8.721l-2.261 4.096A12.283 12.283 0 0 0 60 13.141c-3.48 0-6.623 1.446-8.858 3.76l-2.264-4.1a20.576 20.576 0 0 0-11.582-9.6L28.327.226c-2.25-.746-4.648.403-5.457 2.615L16.837 19.34a4.25 4.25 0 0 0 .397 3.744c.248.395.553.74.901 1.029l9.09 7.326H11.577c-2.516 0-4.564 2.03-4.564 4.526v18.727c0 2.496 2.048 4.526 4.564 4.526h3.685v54.56c0 2.88 2.362 5.223 5.266 5.223h78.944c2.904 0 5.266-2.343 5.266-5.223V93.602a60.17 60.17 0 0 0 2.07.025 3.408 3.408 0 0 0 3.336-2.772c.906-4.891 2.467-17.006-2.596-23.848a9.664 9.664 0 0 0-2.81-2.541v-5.249h3.685c2.516 0 4.564-2.03 4.564-4.526V35.964c0-2.495-2.048-4.526-4.564-4.526zm-26.515-2.452a17.322 17.322 0 0 1 7.77-2.832l4.713-.51-7.188 5.794H78.26l3.648-2.452zm-1.846 14.4c-.414 4.962 2.194 9.658 6.643 11.965l.742.384H74.42v-12.44c0-.961-.786-1.74-1.755-1.74-.97 0-1.756.779-1.756 1.74v12.44H49.09V34.92h26.456a8.794 8.794 0 0 1 4.516 8.466zM60 16.623c4.83 0 8.76 3.897 8.76 8.687v4.496c-.658.161-1.19.694-1.312 1.4-.013.078-.019.155-.022.232H51.24V25.31c0-4.79 3.93-8.687 8.76-8.687zm-39.862 3.903L26.17 4.029a.827.827 0 0 1 1.044-.5l8.969 2.973a17.08 17.08 0 0 1 9.615 7.97l3.111 5.636a12.01 12.01 0 0 0-1.18 5.202v5.948l-7.667-5.154a20.858 20.858 0 0 0-9.36-3.41l-9.874-1.069c-.545-.107-.855-.48-.69-1.099zm5.465 5.118l4.719.51c2.774.3 5.46 1.28 7.77 2.832l3.648 2.452h-8.948l-7.189-5.794zm-15.08 29.047V35.964a1.05 1.05 0 0 1 1.054-1.044H45.58v20.815H11.577a1.05 1.05 0 0 1-1.053-1.044zm8.25 59.086v-54.56h26.806v2.596c0 .962.785 1.741 1.755 1.741.97 0 1.756-.78 1.756-1.74v-2.597h21.82v56.301H49.09V70.43c0-.961-.786-1.74-1.756-1.74s-1.755.779-1.755 1.74v45.088H20.528a1.75 1.75 0 0 1-1.755-1.741zm82.454 0a1.75 1.75 0 0 1-1.755 1.741h-25.05v-56.3h16.677a8.782 8.782 0 0 1 1.116 5.313l-.305 2.888a9.166 9.166 0 0 0-1.332 3.642 9.357 9.357 0 0 0-6.294 2.1 9.078 9.078 0 0 0-3.364 6.558 9.574 9.574 0 0 0 2.664 7.203c4.278 4.446 11.855 5.976 17.644 6.475v20.38h-.001zm5.478-23.631c-3.649.012-15.516-.364-20.58-5.627a6.097 6.097 0 0 1-1.7-4.587 5.64 5.64 0 0 1 2.085-4.078 5.855 5.855 0 0 1 3.703-1.317c.416 0 .837.044 1.255.134a2.097 2.097 0 0 0 1.79-.438 2.06 2.06 0 0 0 .747-1.671 5.763 5.763 0 0 1 2.042-4.634c1.223-1.038 2.791-1.509 4.413-1.323a6.188 6.188 0 0 1 4.257 2.462c4.341 5.866 2.642 17.513 1.988 21.079zm-5.478-26.948a9.295 9.295 0 0 0-5.457.783 12.244 12.244 0 0 0-.796-4.764h6.253v3.981zm8.249-8.507a1.05 1.05 0 0 1-1.053 1.044h-15.49a12.488 12.488 0 0 0-3.843-3.077l-.758-.393c-3.195-1.656-5.068-5.029-4.77-8.592a12.251 12.251 0 0 0-2.574-8.593c-.043-.055-.088-.107-.132-.16h27.567a1.05 1.05 0 0 1 1.053 1.044v18.727z" fill="url(#a)"/><defs><linearGradient id="a" x1="113.417" y1="-.307" x2="-8.421" y2="99.398" gradientUnits="userSpaceOnUse"><stop stop-color="#FFCB35"/><stop offset="0" stop-color="#FFCB35"/><stop offset=".557" stop-color="#FF7949"/><stop offset="1" stop-color="#F06"/></linearGradient></defs></svg>