<svg width="120" height="120" viewBox="0 0 120 120" fill="none" xmlns="http://www.w3.org/2000/svg"><path d="M47.548 93.506a1.875 1.875 0 0 0 1.889-.023l9.375-5.625a1.875 1.875 0 0 0 0-3.216l-9.375-5.625a1.875 1.875 0 0 0-2.84 1.608v11.25a1.874 1.874 0 0 0 .951 1.631zm2.799-9.57l3.855 2.314-3.855 2.313v-4.627z" fill="url(#a)"/><path d="M112.221 9.375h-31.25l-7-5.25a1.875 1.875 0 0 0-2.25 0l-6.999 5.25h-31.25a1.875 1.875 0 0 0-1.876 1.875v13.907a9.368 9.368 0 0 0-3.268 14.8c-.328.262-.64.542-.936.839a11.174 11.174 0 0 0-3.296 7.954v15H15.47a4.224 4.224 0 0 0-4.219 4.219V105H7.5a1.878 1.878 0 0 0-1.875 1.875v2.344a7.038 7.038 0 0 0 7.031 7.031h64.41a7.005 7.005 0 0 0 4.773-1.875h15.383a1.877 1.877 0 0 0 1.875-1.875v-5.625h-3.75v3.75h-11.39c.093-.463.14-.934.14-1.406v-2.344A1.876 1.876 0 0 0 82.222 105H78.75V67.969a4.224 4.224 0 0 0-4.219-4.219H46.596V60h48.75v5.625h3.75V60h13.125a1.876 1.876 0 0 0 1.875-1.875V11.25a1.873 1.873 0 0 0-1.875-1.875zM72.846 7.969l1.875 1.406h-3.75l1.875-1.406zm-37.5 5.156h75V48.75H55.061l5.319-1.994a1.875 1.875 0 0 0 1.16-2.21l-1.277-5.11L70.52 27.47a1.874 1.874 0 1 0-2.847-2.44L58.49 35.74a1.875 1.875 0 0 0-1.303.004L43.413 40.91c-.33-.339-.68-.656-1.048-.951a9.37 9.37 0 0 0-7.019-15.584v-11.25zm45 96.094a3.284 3.284 0 0 1-3.281 3.281H12.656a3.286 3.286 0 0 1-3.281-3.281v-.469h70.972v.469zM27.78 89.273a3.75 3.75 0 1 1 4.443-.003 1.875 1.875 0 0 0 .278 3.192 5.592 5.592 0 0 1 1.78 1.39 1.875 1.875 0 0 0 2.264.46l3.333-1.667.677 2.032-3.892 1.946a1.876 1.876 0 0 0-1.037 1.676V105h-11.25v-7.5a5.629 5.629 0 0 1 3.124-5.04 1.874 1.874 0 0 0 .28-3.187zm16.846 5.759l-1.875-5.625a1.875 1.875 0 0 0-2.617-1.084l-3.766 1.884a7.493 7.493 0 0 0-4.77-11.284V75H67.5v22.5H43.29l.395-.198a1.875 1.875 0 0 0 .94-2.27zM75 67.969V105H39.375v-3.75h30a1.877 1.877 0 0 0 1.875-1.875v-26.25a1.875 1.875 0 0 0-1.875-1.875H29.721a1.875 1.875 0 0 0-1.875 1.875v5.938a7.497 7.497 0 0 0-4.045 11.403 9.315 9.315 0 0 0-3.176 7.034v7.5H15V67.969a.469.469 0 0 1 .469-.469H74.53a.469.469 0 0 1 .469.469zM27.846 63.75v-15a7.512 7.512 0 0 1 4.43-6.844 1.874 1.874 0 0 0 .195-3.32 5.625 5.625 0 1 1 5.753 0 1.875 1.875 0 0 0 .194 3.32 7.529 7.529 0 0 1 2.93 2.343 1.875 1.875 0 0 0 2.158.63l13.032-4.887.96 3.838-13.435 5.04a1.875 1.875 0 0 0-1.217 1.755V63.75h-15zm18.75-7.5V52.5h63.75v3.75h-63.75z" fill="url(#b)"/><path d="M97.222 69.375A13.125 13.125 0 1 0 110.347 82.5a13.139 13.139 0 0 0-13.125-13.125zm9.187 11.25h-3.12a16.86 16.86 0 0 0-1.249-4.773l-.777-1.81a9.413 9.413 0 0 1 5.145 6.583h.001zm-9.187 10.24l-1.37-3.194a13.073 13.073 0 0 1-.92-3.296h4.58a13.066 13.066 0 0 1-.92 3.294l-1.37 3.196zm-2.29-10.24c.161-1.134.47-2.241.92-3.294l1.37-3.196 1.37 3.194c.45 1.054.758 2.162.92 3.296h-4.58zm-1.75-6.583l-.778 1.812a16.83 16.83 0 0 0-1.248 4.771h-3.12a9.408 9.408 0 0 1 5.146-6.583zm-5.147 10.333h3.12c.18 1.644.602 3.252 1.25 4.773l.777 1.81a9.408 9.408 0 0 1-5.147-6.583zm13.227 6.584l.777-1.813a16.818 16.818 0 0 0 1.25-4.771h3.12a9.408 9.408 0 0 1-5.147 6.584z" fill="url(#c)"/><path d="M99.097 99.375h-3.75v3.75h3.75v-3.75z" fill="url(#d)"/><defs><linearGradient id="a" x1="59.775" y1="78.711" x2="44.473" y2="91.016" gradientUnits="userSpaceOnUse"><stop stop-color="#FFCB35"/><stop offset="0" stop-color="#FFCB35"/><stop offset=".557" stop-color="#FF7949"/><stop offset="1" stop-color="#F06"/></linearGradient><linearGradient id="b" x1="114.537" y1="3.459" x2="-2.114" y2="106.815" gradientUnits="userSpaceOnUse"><stop stop-color="#FFCB35"/><stop offset="0" stop-color="#FFCB35"/><stop offset=".557" stop-color="#FF7949"/><stop offset="1" stop-color="#F06"/></linearGradient><linearGradient id="c" x1="110.453" y1="69.307" x2="83.133" y2="94.413" gradientUnits="userSpaceOnUse"><stop stop-color="#FFCB35"/><stop offset="0" stop-color="#FFCB35"/><stop offset=".557" stop-color="#FF7949"/><stop offset="1" stop-color="#F06"/></linearGradient><linearGradient id="d" x1="99.112" y1="99.365" x2="95.209" y2="102.952" gradientUnits="userSpaceOnUse"><stop stop-color="#FFCB35"/><stop offset="0" stop-color="#FFCB35"/><stop offset=".557" stop-color="#FF7949"/><stop offset="1" stop-color="#F06"/></linearGradient></defs></svg>