<svg width="120" height="120" viewBox="0 0 120 120" fill="none" xmlns="http://www.w3.org/2000/svg"><path d="M114.375 15h-5.625v-1.875a1.877 1.877 0 0 0-1.875-1.875H93.75V9.375a5.625 5.625 0 1 0-11.25 0v1.875h-3.75V9.375a5.625 5.625 0 1 0-11.25 0v1.875H45V9.375a5.625 5.625 0 1 0-11.25 0v1.875H30V9.375a5.625 5.625 0 1 0-11.25 0v1.875H5.625a1.875 1.875 0 0 0-1.875 1.875v93.75a1.877 1.877 0 0 0 1.875 1.875H7.5v5.625a1.877 1.877 0 0 0 1.875 1.875h105c.497 0 .974-.198 1.326-.549.351-.352.549-.829.549-1.326v-97.5A1.877 1.877 0 0 0 114.375 15zM7.5 105V37.5H105V105H7.5zM86.25 9.375a1.875 1.875 0 1 1 3.75 0v1.875h-3.75V9.375zm-15 0a1.875 1.875 0 1 1 3.75 0v1.875h-3.75V9.375zm-33.75 0a1.875 1.875 0 1 1 3.75 0v1.875H37.5V9.375zm-15 0a1.875 1.875 0 1 1 3.75 0v1.875H22.5V9.375zM18.75 15v1.875a5.632 5.632 0 0 0 5.625 5.625 1.875 1.875 0 1 0 0-3.75 1.877 1.877 0 0 1-1.875-1.875V15h11.25v1.875a5.632 5.632 0 0 0 5.625 5.625 1.875 1.875 0 1 0 0-3.75 1.877 1.877 0 0 1-1.875-1.875V15h30v1.875a5.632 5.632 0 0 0 5.625 5.625 1.875 1.875 0 1 0 0-3.75 1.877 1.877 0 0 1-1.875-1.875V15H82.5v1.875a5.632 5.632 0 0 0 5.625 5.625 1.875 1.875 0 1 0 0-3.75 1.877 1.877 0 0 1-1.875-1.875V15H105v18.75H7.5V15h11.25zm93.75 97.5H11.25v-3.75h95.625c.497 0 .974-.198 1.326-.549.351-.352.549-.829.549-1.326V18.75h3.75v93.75z" fill="url(#a)"/><path d="M41.25 80.625a11.248 11.248 0 0 0-5.037-9.375 11.249 11.249 0 1 0-17.463-9.375 1.875 1.875 0 1 0 3.75 0 7.5 7.5 0 1 1 7.5 7.5 1.875 1.875 0 0 0 0 3.75 7.5 7.5 0 1 1-7.5 7.5 1.875 1.875 0 1 0-3.75 0 11.25 11.25 0 0 0 22.5 0z" fill="url(#b)"/><path d="M82.5 69.375h-5.625v-15H90a1.875 1.875 0 1 0 0-3.75H75a1.875 1.875 0 0 0-1.875 1.875v18.75A1.875 1.875 0 0 0 75 73.125h7.5a7.5 7.5 0 1 1-7.5 7.5 1.875 1.875 0 1 0-3.75 0 11.25 11.25 0 1 0 11.25-11.25z" fill="url(#c)"/><path d="M56.25 54.375a7.508 7.508 0 0 1 7.5 7.5 1.875 1.875 0 1 0 3.75 0 11.25 11.25 0 0 0-22.5 0v18.75a11.266 11.266 0 1 0 3.75-8.376V61.875a7.508 7.508 0 0 1 7.5-7.5zm0 18.75a7.5 7.5 0 1 1-7.5 7.5 7.508 7.508 0 0 1 7.5-7.5z" fill="url(#d)"/><defs><linearGradient id="a" x1="116.707" y1="3.459" x2="-.38" y2="111.054" gradientUnits="userSpaceOnUse"><stop stop-color="#FFCB35"/><stop offset="0" stop-color="#FFCB35"/><stop offset=".557" stop-color="#FF7949"/><stop offset="1" stop-color="#F06"/></linearGradient><linearGradient id="b" x1="41.341" y1="50.519" x2="6.822" y2="67.821" gradientUnits="userSpaceOnUse"><stop stop-color="#FFCB35"/><stop offset="0" stop-color="#FFCB35"/><stop offset=".557" stop-color="#FF7949"/><stop offset="1" stop-color="#F06"/></linearGradient><linearGradient id="c" x1="93.841" y1="50.519" x2="59.322" y2="67.821" gradientUnits="userSpaceOnUse"><stop stop-color="#FFCB35"/><stop offset="0" stop-color="#FFCB35"/><stop offset=".557" stop-color="#FF7949"/><stop offset="1" stop-color="#F06"/></linearGradient><linearGradient id="d" x1="67.624" y1="50.518" x2="33.064" y2="67.852" gradientUnits="userSpaceOnUse"><stop stop-color="#FFCB35"/><stop offset="0" stop-color="#FFCB35"/><stop offset=".557" stop-color="#FF7949"/><stop offset="1" stop-color="#F06"/></linearGradient></defs></svg>