<svg width="110" height="103" viewBox="0 0 110 103" fill="none" xmlns="http://www.w3.org/2000/svg"><path d="M109.181 1.073a3.234 3.234 0 0 0-3.697-.805L1.93 45.452A3.214 3.214 0 0 0 0 48.323a3.212 3.212 0 0 0 1.801 2.953l24.726 12.12 6.162 36.845a3.216 3.216 0 0 0 2.737 2.726 3.223 3.223 0 0 0 2.765-.942l19.52-19.457 27.857 19.834a3.237 3.237 0 0 0 3.06.373 3.218 3.218 0 0 0 1.974-2.358L109.938 3.84a3.196 3.196 0 0 0-.757-2.767zM29.08 57.488l-18.208-8.925 71.933-31.386L29.08 57.488zm10.084 9.549l-2.997 14.936-3.233-19.337L72.458 32.98 40.043 65.4a3.257 3.257 0 0 0-.879 1.638zm1.962 22.977l3.382-16.846 7.886 5.614-11.268 11.232zm44.13 4.27l-37.968-27.03 54.241-54.245-16.272 81.275z" fill="url(#a)"/><defs><linearGradient id="a" x1="110.447" y1="-.266" x2="2.883" y2="105.296" gradientUnits="userSpaceOnUse"><stop stop-color="#FFCB35"/><stop offset="0" stop-color="#FFCB35"/><stop offset=".557" stop-color="#FF7949"/><stop offset="1" stop-color="#F06"/></linearGradient></defs></svg>