<svg width="141" height="33" viewBox="0 0 141 33" fill="none" xmlns="http://www.w3.org/2000/svg"><g clip-path="url(#a)" fill-rule="evenodd" clip-rule="evenodd"><path d="M65.669 25.97a6.797 6.797 0 0 1-3.5 1.909 6.747 6.747 0 0 1-3.958-.392 6.84 6.84 0 0 1-3.07-2.557 6.961 6.961 0 0 1-1.138-3.855c-.02-.92.14-1.835.474-2.692a6.92 6.92 0 0 1 1.47-2.294 6.824 6.824 0 0 1 2.233-1.538 6.759 6.759 0 0 1 5.298 0c.838.357 1.598.88 2.234 1.538a6.92 6.92 0 0 1 1.47 2.294c.333.857.494 1.772.474 2.692a6.759 6.759 0 0 1-.495 2.655 6.693 6.693 0 0 1-1.492 2.24zm-8.474-1.21a5.151 5.151 0 0 0 3.624 1.495 5.152 5.152 0 0 0 3.623-1.494 5.045 5.045 0 0 0 1.105-1.691 5.095 5.095 0 0 0 .358-1.995 5.12 5.12 0 0 0-.356-2.005 5.073 5.073 0 0 0-1.107-1.702 5.152 5.152 0 0 0-3.623-1.494 5.151 5.151 0 0 0-3.624 1.494 5.07 5.07 0 0 0-1.105 1.702 5.119 5.119 0 0 0-.354 2.005 5.09 5.09 0 0 0 .356 1.994c.25.634.626 1.21 1.103 1.692zm16.673 3.23a4.582 4.582 0 0 1-1.866-.33c-.593-.24-1.13-.6-1.58-1.06a4.895 4.895 0 0 1-1.04-1.651 4.938 4.938 0 0 1-.317-1.932c0-1.627.235-2.878.704-3.753.47-.875 1.434-1.672 2.89-2.38.264-.128.626-.295 1.083-.498.457-.203.794-.356 1.009-.466.244-.13.479-.275.703-.438.239-.159.441-.367.594-.611.138-.239.236-.498.292-.769l1.319.761a3.53 3.53 0 0 1-.152.563 1.97 1.97 0 0 1-.274.494l-.31.41a1.816 1.816 0 0 1-.442.355c-.208.132-.352.231-.45.295-.178.105-.361.2-.549.285l-.545.256a10.03 10.03 0 0 1-.633.267c-.323.135-.523.22-.6.26a6.316 6.316 0 0 0-1.86 1.163 3.271 3.271 0 0 0-.855 1.423 3.557 3.557 0 0 1 1.505-1.124 4.817 4.817 0 0 1 1.807-.356 4.127 4.127 0 0 1 1.65.314c.523.217.997.54 1.393.947.396.408.707.893.912 1.426.205.533.3 1.103.282 1.674a4.289 4.289 0 0 1-.322 1.744 4.246 4.246 0 0 1-.997 1.458 4.665 4.665 0 0 1-1.55.97 4.623 4.623 0 0 1-1.8.297v.007zm-2.204-2.44c.597.563 1.39.864 2.204.84a3.031 3.031 0 0 0 2.177-.818 2.752 2.752 0 0 0 .854-2.06 2.807 2.807 0 0 0-.819-2.085 2.935 2.935 0 0 0-2.155-.793 3.424 3.424 0 0 0-2.177.772 2.46 2.46 0 0 0-.725.896c-.168.352-.251.74-.242 1.132a2.833 2.833 0 0 0 .883 2.134v-.018zm14.802-7.335h1.758l-3.84 10.128a5.411 5.411 0 0 1-1.694 2.47 3.519 3.519 0 0 1-2.486.75v-1.54c1.156.09 2.003-.546 2.542-1.908l.152-.355-4.097-9.535h1.734l3.22 7.471 2.711-7.47v-.011zm9.058 0h1.638v9.534h-1.638v-3.426c-.805.34-1.67.509-2.542.495-1.208 0-2.14-.289-2.796-.865-.656-.576-.987-1.431-.991-2.565v-3.163h1.638v3.07c0 .712.194 1.217.577 1.523.495.34 1.088.501 1.684.46a5.8 5.8 0 0 0 2.43-.499v-4.564zm5.274 5.528c.124.79.542 1.503 1.167 1.992.65.487 1.442.737 2.25.712 1.241 0 2.145-.466 2.711-1.391l1.407.8c-.915 1.423-2.295 2.135-4.142 2.135a4.87 4.87 0 0 1-1.967-.33 4.919 4.919 0 0 1-1.676-1.093 4.88 4.88 0 0 1-1.07-1.65 4.922 4.922 0 0 1-.336-1.943c-.02-.66.092-1.317.328-1.933a4.943 4.943 0 0 1 1.046-1.65 4.75 4.75 0 0 1 1.632-1.09 4.696 4.696 0 0 1 1.927-.333 4.277 4.277 0 0 1 1.852.357 4.337 4.337 0 0 1 1.527 1.12 5.161 5.161 0 0 1 1.311 3.557 5.606 5.606 0 0 1-.056.744l-7.911-.004zm3.256-4.212a3.1 3.1 0 0 0-2.165.735 3.166 3.166 0 0 0-1.091 2.03h6.286a3.178 3.178 0 0 0-1.054-2.06 2.995 2.995 0 0 0-1.976-.712v.007zm13.086-1.316h1.639v9.534h-1.639v-3.977h-4.877v3.977h-1.638v-9.524h1.638v3.963h4.877v-3.973zm10.96 0h1.318v9.534h-1.621v-6.685l-5.214 6.685h-1.318v-9.524h1.62v6.678l5.215-6.688zm4.954 5.528a3.148 3.148 0 0 0 1.157 1.982c.65.485 1.442.736 2.25.711 1.245 0 2.148-.466 2.711-1.39l1.406.8c-.919 1.423-2.301 2.134-4.145 2.134a4.87 4.87 0 0 1-1.967-.33 4.919 4.919 0 0 1-1.676-1.093 4.907 4.907 0 0 1-1.406-3.593 4.976 4.976 0 0 1 1.374-3.582 4.756 4.756 0 0 1 1.632-1.09 4.708 4.708 0 0 1 1.927-.333 4.293 4.293 0 0 1 1.854.356 4.34 4.34 0 0 1 1.528 1.12 5.171 5.171 0 0 1 1.308 3.558 5.606 5.606 0 0 1-.056.743l-7.897.007zm3.256-4.212a3.1 3.1 0 0 0-2.165.735 3.166 3.166 0 0 0-1.091 2.03h6.286a3.19 3.19 0 0 0-1.054-2.06 3.01 3.01 0 0 0-1.976-.694v-.011z" fill="#080200"/><path d="M2.739 9.442h45.846v20.797c0 .735-.289 1.44-.803 1.96-.513.52-1.21.812-1.936.812H2.739a2.723 2.723 0 0 1-1.937-.812A2.788 2.788 0 0 1 0 30.239V12.213c0-.735.289-1.44.802-1.96a2.723 2.723 0 0 1 1.937-.811z" fill="#00963F"/><path d="M54.28 6.93c.922-1.238 1.365-3.372.648-6.93-9.05 1.423-7.11 6.372-6.245 7.92a31.586 31.586 0 0 1 4.683-5.736 35.059 35.059 0 0 0-3.115 5.59c1.22-1.424 2.651-1.498 4.03-.844zm2.849 2.903c-3.967 4.525-6.094 2.02-6.885.662a10.435 10.435 0 0 1 3.826-.534 11.64 11.64 0 0 0-4.047-.516c.481-1.17 2.464-4.625 7.105.388z" fill="#85BC22"/><path d="M27.692 14.614h1.192v1.206h-1.192v-1.206zm-17.07 7.557l2.96-7.556h1.97l-4.55 10.847c-.668 1.59-1.544 2.294-3.165 2.358a6.53 6.53 0 0 1-2.461-.441v-1.52c1.537.456 1.737.51 2.285.499.75 0 1.382-.406 2.11-2.106l-4.384-9.637h1.902l3.333 7.556zm12.907 5.65h-1.642v-3.512a8.536 8.536 0 0 1-2.211.288c-2.303 0-3.671-1.203-3.692-3.579v-2.874h1.635v2.942c0 1.444.703 2.074 2.057 2.074a8.536 8.536 0 0 0 2.211-.288v-4.728h1.642v9.676zm6.54 0c-3.066 0-4.55-2.036-4.55-4.871 0-2.49 1.586-4.8 4.34-4.8 3.43 0 4.081 2.537 4.081 5.294h-6.909a3.04 3.04 0 0 0 .908 2.178 2.943 2.943 0 0 0 2.183.843 3.215 3.215 0 0 0 1.468-.286c.46-.21.867-.524 1.186-.92l1.055.758c-.844 1.202-2.098 1.803-3.762 1.803zm-.21-8.365c-1.6 0-2.589 1.27-2.772 2.683h5.341c0-1.448-.966-2.683-2.57-2.683zm13.335.032h-3.206v8.332h-1.635v-8.332h-3.165v-1.344h7.989v1.337l.017.007zM30.59 14.625h1.193v1.206H30.59v-1.206z" fill="#fff"/></g><defs><clipPath id="a"><path fill="#fff" d="M0 0h141v33H0z"/></clipPath></defs></svg>