<svg width="402" height="93" viewBox="0 0 402 93" fill="none" xmlns="http://www.w3.org/2000/svg"><g clip-path="url(#a)" fill-rule="evenodd" clip-rule="evenodd"><path d="M186.77 73a19.397 19.397 0 0 1-21.212 4.265A19.4 19.4 0 0 1 153.59 59.24a19.42 19.42 0 1 1 38.83 0A18.804 18.804 0 0 1 186.77 73zm-24.1-3.4a14.74 14.74 0 0 0 20.61 0 14.165 14.165 0 0 0 4.16-10.36 14.23 14.23 0 0 0-4.16-10.42 14.74 14.74 0 0 0-20.61 0 14.236 14.236 0 0 0-4.15 10.42 14.17 14.17 0 0 0 4.15 10.36zm47.42 9.08a13.171 13.171 0 0 1-9.8-3.91 13.738 13.738 0 0 1-3.86-10.07c0-4.573.667-8.09 2-10.55 1.34-2.46 4.08-4.7 8.22-6.69.75-.36 1.78-.83 3.08-1.4s2.26-1 2.87-1.31a16.92 16.92 0 0 0 2-1.23 5.728 5.728 0 0 0 1.69-1.72c.391-.67.672-1.4.83-2.16l3.75 2.14a9.813 9.813 0 0 1-.43 1.58 5.502 5.502 0 0 1-.78 1.39l-.88 1.15a5.15 5.15 0 0 1-1.26 1c-.59.37-1 .65-1.28.83a16.35 16.35 0 0 1-1.56.8l-1.55.72c-.267.133-.867.383-1.8.75-.92.38-1.49.62-1.71.73a17.996 17.996 0 0 0-5.29 3.27 9.182 9.182 0 0 0-2.43 4 10.112 10.112 0 0 1 4.28-3.16 13.844 13.844 0 0 1 5.14-1 11.861 11.861 0 0 1 12.05 12.26c.044 1.68-.267 3.35-.914 4.9a11.919 11.919 0 0 1-2.836 4.1 13.293 13.293 0 0 1-9.53 3.56v.02zm-6.27-6.86a8.83 8.83 0 0 0 6.27 2.36 8.68 8.68 0 0 0 6.19-2.3 7.664 7.664 0 0 0 2.43-5.79 7.818 7.818 0 0 0-2.33-5.86 8.378 8.378 0 0 0-6.13-2.23 9.81 9.81 0 0 0-6.19 2.17 6.934 6.934 0 0 0-2.75 5.7 7.873 7.873 0 0 0 2.51 6v-.05zm42.1-20.62h5L240 79.67a15.209 15.209 0 0 1-4.82 6.94 10.09 10.09 0 0 1-7.07 2.11v-4.33c3.287.253 5.697-1.533 7.23-5.36l.43-1-11.65-26.8h4.93l9.16 21 7.71-21v-.03zm25.76 0h4.66V78h-4.66v-9.63a18 18 0 0 1-7.23 1.39c-3.433 0-6.083-.81-7.95-2.43s-2.807-4.023-2.82-7.21v-8.89h4.66v8.63c0 2 .55 3.42 1.64 4.28a7.599 7.599 0 0 0 4.79 1.29 16.658 16.658 0 0 0 6.91-1.4V51.2zm15 15.54a8.839 8.839 0 0 0 3.32 5.6 10.23 10.23 0 0 0 6.4 2c3.53 0 6.1-1.31 7.71-3.91l4 2.25c-2.6 4-6.527 6-11.78 6a14.003 14.003 0 0 1-10.36-4 13.685 13.685 0 0 1-4-10.1 13.846 13.846 0 0 1 .934-5.432 13.843 13.843 0 0 1 2.976-4.638 13.507 13.507 0 0 1 10.12-4 12.3 12.3 0 0 1 9.61 4.15 14.404 14.404 0 0 1 3.73 10c-.005.7-.059 1.398-.16 2.09l-22.5-.01zm9.26-11.84a8.88 8.88 0 0 0-9.26 7.77h17.88a8.9 8.9 0 0 0-3-5.79 8.57 8.57 0 0 0-5.62-2v.02zm37.22-3.7h4.66V78h-4.66V66.82h-13.87V78h-4.66V51.23h4.66v11.14h13.87V51.2zm31.17 0h3.75V78h-4.61V59.21L348.64 78h-3.75V51.23h4.61V70l14.83-18.8zm14.09 15.54a8.842 8.842 0 0 0 3.29 5.57 10.25 10.25 0 0 0 6.4 2c3.54 0 6.11-1.31 7.71-3.91l4 2.25c-2.613 4-6.543 6-11.79 6a14.003 14.003 0 0 1-10.36-4 13.685 13.685 0 0 1-4-10.1 13.846 13.846 0 0 1 .934-5.432 13.844 13.844 0 0 1 2.976-4.638 13.529 13.529 0 0 1 10.12-4 12.333 12.333 0 0 1 9.62 4.15 14.441 14.441 0 0 1 3.72 10c-.005.7-.059 1.398-.16 2.09l-22.46.02zm9.26-11.84a8.88 8.88 0 0 0-9.26 7.77h17.88a8.93 8.93 0 0 0-3-5.79 8.622 8.622 0 0 0-5.62-1.95v-.03z" fill="#fff"/><path d="M7.79 26.54h130.39V85a7.79 7.79 0 0 1-7.79 7.79H7.79A7.79 7.79 0 0 1 0 85V34.33a7.79 7.79 0 0 1 7.79-7.79z" fill="#00963F"/><path d="M154.38 19.48C157 16 158.26 10 156.22 0 130.48 4 136 17.91 138.46 22.26a88.993 88.993 0 0 1 13.32-16.12 98.191 98.191 0 0 0-8.86 15.71c3.47-4 7.54-4.21 11.46-2.37zm8.1 8.16c-11.28 12.72-17.33 5.68-19.58 1.86a29.997 29.997 0 0 1 10.88-1.5 33.47 33.47 0 0 0-11.51-1.45c1.37-3.29 7.01-13 20.21 1.09z" fill="#85BC22"/><path d="M78.76 41.08h3.39v3.39h-3.39v-3.39zM30.21 62.32l8.42-21.24h5.6L31.29 71.57c-1.9 4.47-4.39 6.45-9 6.63a18.772 18.772 0 0 1-7-1.24v-4.27c4.37 1.28 4.94 1.43 6.5 1.4 2.13 0 3.93-1.14 6-5.92L15.32 41.08h5.41l9.48 21.24zM66.92 78.2h-4.67v-9.87c-2.053.54-4.167.813-6.29.81-6.55 0-10.44-3.38-10.5-10.06V51h4.65v8.27c0 4.06 2 5.83 5.85 5.83 2.123.003 4.237-.27 6.29-.81V51h4.67v27.2zm18.6 0c-8.72 0-12.94-5.72-12.94-13.69 0-7 4.51-13.49 12.34-13.49 9.76 0 11.61 7.13 11.61 14.88H76.88a8.46 8.46 0 0 0 8.79 8.49A9.24 9.24 0 0 0 93.22 71l3 2.13c-2.4 3.38-5.967 5.07-10.7 5.07zm-.6-23.51c-4.55 0-7.36 3.57-7.88 7.54h15.19c0-4.07-2.75-7.54-7.31-7.54zm37.93.09h-9.12V78.2h-4.65V54.78h-9V51h22.72v3.76l.05.02zM87 41.11h3.39v3.39H87v-3.39z" fill="#fff"/></g><defs><clipPath id="a"><path fill="#fff" d="M0 0h401.02v92.76H0z"/></clipPath></defs></svg>