<svg width="70" height="71" viewBox="0 0 70 71" fill="none" xmlns="http://www.w3.org/2000/svg"><g clip-path="url(#a)" filter="url(#b)"><path d="M66.7 29.25H40.3v-26C40.3 1.456 38.822 0 37 0c-1.821 0-3.3 1.456-3.3 3.25v26H7.3c-1.821 0-3.3 1.456-3.3 3.25s1.479 3.25 3.3 3.25h26.4v26c0 1.794 1.479 3.25 3.3 3.25 1.822 0 3.3-1.456 3.3-3.25v-26h26.4c1.822 0 3.3-1.456 3.3-3.25s-1.478-3.25-3.3-3.25z" fill="url(#c)"/></g><defs><filter id="b" x="0" y="0" width="70" height="71" filterUnits="userSpaceOnUse" color-interpolation-filters="sRGB"><feFlood flood-opacity="0" result="BackgroundImageFix"/><feColorMatrix in="SourceAlpha" values="0 0 0 0 0 0 0 0 0 0 0 0 0 0 0 0 0 0 127 0"/><feOffset dx="-2" dy="4"/><feGaussianBlur stdDeviation="1"/><feColorMatrix values="0 0 0 0 0 0 0 0 0 0 0 0 0 0 0 0 0 0 0.1 0"/><feBlend in2="BackgroundImageFix" result="effect1_dropShadow"/><feBlend in="SourceGraphic" in2="effect1_dropShadow" result="shape"/></filter><linearGradient id="c" x1="70.268" y1="-.168" x2="2.538" y2="63.029" gradientUnits="userSpaceOnUse"><stop stop-color="#FFCB35"/><stop offset="0" stop-color="#FFCB35"/><stop offset=".557" stop-color="#FF7949"/><stop offset="1" stop-color="#F06"/></linearGradient><clipPath id="a"><path fill="#fff" transform="translate(4)" d="M0 0h66v65H0z"/></clipPath></defs></svg>