<svg width="24" height="24" viewBox="0 0 24 24" fill="none" xmlns="http://www.w3.org/2000/svg"><path fill-rule="evenodd" clip-rule="evenodd" d="M9 10.5a2.5 2.5 0 1 0 0-5 2.5 2.5 0 0 0 0 5zM9 12a4 4 0 1 0 0-8 4 4 0 0 0 0 8z" fill="#fff"/><path fill-rule="evenodd" clip-rule="evenodd" d="M10 12.5H8A3.5 3.5 0 0 0 4.5 16v1.5h9V16a3.5 3.5 0 0 0-3.5-3.5zM8 11a5 5 0 0 0-5 5v2a1 1 0 0 0 1 1h10a1 1 0 0 0 1-1v-2a5 5 0 0 0-5-5H8z" fill="#fff"/><path d="M18.574 13.5H17.5c-.148 0-.222-.082-.222-.245v-2.012h-2.019c-.173 0-.259-.082-.259-.245v-.959c0-.163.086-.244.26-.244h2.018v-2.07c0-.15.074-.225.222-.225h1.074c.148 0 .222.075.222.226v2.069h1.963c.16 0 .241.081.241.244V11c0 .162-.08.244-.24.244h-1.964v2.012c0 .163-.074.245-.222.245z" fill="#fff"/></svg>