<svg xmlns="http://www.w3.org/2000/svg" width="499.771" height="123.681" viewBox="0 0 13223.1 3272.38" shape-rendering="geometricPrecision" text-rendering="geometricPrecision" image-rendering="optimizeQuality" fill-rule="evenodd" clip-rule="evenodd"><defs><style>.fil1{fill:#e32831}.fil2{fill:#88bd2f}.fil0,.fil3{fill:#fefefe;fill-rule:nonzero}.fil0{fill:#fff}</style></defs><g id="Слой_x0020_1"><path class="fil0" d="M6104.99 2776.88c-200.27 0-365.59-66.13-495.96-198.38-130.36-132.25-195.54-294.74-195.54-487.45 0-192.72 65.18-355.2 195.54-487.45 130.37-132.26 295.69-198.39 495.96-198.39 120.92 0 232.07 28.97 333.47 86.91 101.39 57.94 180.43 136.04 237.11 234.28l-153.04 88.8c-37.78-73.05-94.15-131.31-169.09-174.76-74.95-43.46-157.76-65.19-248.45-65.19-152.41 0-276.79 49.13-373.15 147.37-96.36 98.25-144.53 221.06-144.53 368.43 0 146.11 48.17 268.29 144.53 366.53 96.36 98.25 220.74 147.37 373.15 147.37 90.69 0 173.5-21.73 248.45-65.18 74.94-43.46 131.31-101.08 169.09-172.88l153.04 86.91c-55.42 98.25-134.14 176.66-236.17 235.23-102.02 58.57-213.49 87.85-334.41 87.85zm863.43-421.32c16.37 84.39 55.1 149.88 116.19 196.49 61.09 46.6 136.35 69.9 225.78 69.9 124.7 0 215.39-45.97 272.07-137.92l139.81 79.35c-91.95 142.34-230.5 213.5-415.66 213.5-149.89 0-271.75-46.92-365.59-140.76-93.84-93.83-140.75-212.55-140.75-356.14 0-142.33 45.97-260.73 137.92-355.2 91.95-94.46 210.98-141.7 357.09-141.7 138.55 0 251.59 48.81 339.13 146.43 87.54 97.61 131.31 215.07 131.31 352.36 0 23.93-1.89 48.5-5.66 73.69h-791.64zm326.86-417.55c-88.17 0-161.23 24.88-219.17 74.63s-93.84 116.19-107.69 199.33h631.04c-13.85-89.43-49.12-157.45-105.8-204.05-56.68-46.61-122.81-69.91-198.38-69.91zm1180.84-154.93c132.25 0 244.98 48.18 338.19 144.54 93.21 96.36 139.81 213.81 139.81 352.36s-46.6 256.01-139.81 352.37c-93.21 96.35-205.94 144.53-338.19 144.53-156.19 0-275.22-62.35-357.09-187.04v540.35h-164.37V1807.64h164.37v162.49c81.87-124.7 200.9-187.05 357.09-187.05zm-20.79 835.1c94.47 0 173.83-32.44 238.06-97.31 64.24-64.86 96.36-145.16 96.36-240.89 0-95.72-32.12-176.02-96.36-240.89-64.23-64.87-143.59-97.3-238.06-97.3-95.72 0-175.7 32.43-239.94 97.3-64.24 64.87-96.36 145.17-96.36 240.89 0 95.73 32.12 176.03 96.36 240.89 64.24 64.87 144.22 97.31 239.94 97.31zm1324.44-351.42c96.99 40.3 145.48 113.36 145.48 219.16 0 78.09-26.14 142.02-78.41 191.77-52.27 49.75-126.9 74.63-223.89 74.63h-472.33v-944.68h434.55c94.47 0 167.52 23.62 219.16 70.86 51.64 47.23 77.47 109.26 77.47 186.1 0 90.69-34.01 158.07-102.03 202.16zm-202.16-311.75h-266.4v247.51h266.4c95.73 0 143.59-42.2 143.59-126.59 0-80.61-47.86-120.92-143.59-120.92zm35.9 648.05c47.86 0 84.7-11.33 110.52-34.01 25.83-22.67 38.74-54.79 38.74-96.35 0-39.05-12.91-69.59-38.74-91.64-25.82-22.04-62.66-33.06-110.52-33.06h-302.3v255.06h302.3zm1175.17-795.42h132.26v944.68h-162.49v-663.16l-523.35 663.16h-132.25v-944.68h162.48v663.17l523.35-663.17zm825.64 969.24c-142.33 0-260.73-47.55-355.19-142.64-94.47-95.1-141.7-213.19-141.7-354.26s47.23-259.15 141.7-354.25c94.46-95.1 212.86-142.65 355.19-142.65 93.21 0 176.97 22.36 251.29 67.08 74.31 44.71 129.73 104.85 166.26 180.43l-137.92 79.35c-23.93-50.38-60.78-90.69-110.53-120.92-49.75-30.23-106.12-45.34-169.1-45.34-94.46 0-173.5 32.12-237.11 96.36-63.61 64.23-95.41 144.22-95.41 239.94 0 94.47 31.8 173.82 95.41 238.06 63.61 64.24 142.65 96.36 237.11 96.36 62.98 0 119.66-14.8 170.05-44.4 50.38-29.6 88.8-69.59 115.25-119.98l139.81 81.25c-40.31 74.31-98.25 133.83-173.82 178.54-75.58 44.71-159.34 67.07-251.29 67.07zm988.13-629.15c94.47 0 172.88 28.02 235.22 84.07 62.35 56.05 93.53 128.79 93.53 218.22s-31.18 162.17-93.53 218.22c-62.34 56.05-140.75 84.08-235.22 84.08h-398.65v-944.68h164.37v340.09h234.28zm451.55-340.09h164.38v944.68H13054v-944.68zm-451.55 791.64c46.6 0 85.97-13.54 118.08-40.62 32.12-27.08 48.18-63.29 48.18-108.64 0-45.34-16.06-81.87-48.18-109.58-32.11-27.71-71.48-41.56-118.08-41.56h-234.28v300.4h234.28z"/><path class="fil1" d="M270.1 936.37h4599.78v2061.39c0 151.8-123.05 274.86-274.85 274.86H270.1c-151.79 0-274.85-123.06-274.85-274.86V1211.22c0-151.8 123.06-274.85 274.85-274.85z"/><path class="fil2" d="M5441.29 687.57c91.02-121.99 137.14-334.85 64.97-687.35-907.89 140.38-712.69 631.98-626.32 785.22 108.31-177.14 326.6-440.05 469.86-568.45-94.07 136.84-234.54 366.08-312.64 553.91 122.48-140.26 266.04-148.3 404.13-83.33zm285.86 287.75c-465.73-496.94-664.63-154.49-712.9-37.76 137.33-6.6 274.75 10.73 406.15 51.24a1055.716 1055.716 0 0 0-383.94 51.96c79.3 134.92 292.87 383.23 690.69-65.44z"/><path class="fil3" d="M2773.72 1449.5h119.48v119.48h-119.48V1449.5zm-1712.73 749.11l296.91-749.11h197.64l-456.41 1075.39c-66.94 157.71-154.93 227.58-316.75 234.22-74.78 3.07-158.67-12.67-246.52-43.81v-150.79c154.18 45.37 174.15 50.49 229.32 49.47 74.89-1.4 138.38-40.18 210.46-208.95L535.86 1449.5h190.68l334.45 749.11zm1295.1 560.24h-164.66v-348.06c-72.34 19.06-146.18 28.44-221.86 28.44-231.19 0-368.57-119-370.45-354.73v-286.32h164.04v291.77c0 143.19 71.73 205.71 206.41 205.71 75.68 0 149.52-9.38 221.86-28.44V1800h164.66v958.85zm656.02 0c-307.58 0-456.55-201.79-456.55-482.92 0-245.27 159.15-475.93 435.5-475.93 344.3 0 409.72 251.61 409.72 524.91h-693.29c4.67 168.55 126.15 299.52 309.87 299.52 110.99 0 197.16-36.88 266.55-119.29l104 75.23c-83.59 118.99-208.96 178.48-375.8 178.48zm-21.05-829.37c-160.57 0-259.59 126.1-277.9 265.95h535.69c0-143.29-97.02-265.95-257.79-265.95zm1338.22 3.09h-322.04v826.28H3843.2v-826.28h-315.68V1800h801.76v132.57zm-1266.13-482.03h119.47v119.47h-119.47v-119.47z"/></g></svg>